<?xml version="1.0" encoding="UTF-8"?>
<!-- Generator: visioncortex VTracer 0.6.3 -->
<svg version="1.1" xmlns="http://www.w3.org/2000/svg" width="1280" height="1280">
<path d="M0 0 C1.13 -0 2.26 -0.01 3.42 -0.01 C4.68 -0.01 5.94 -0 7.23 -0 C8.57 -0 9.91 -0 11.24 -0.01 C14.93 -0.01 18.62 -0.01 22.31 -0 C26.29 -0 30.26 -0.01 34.23 -0.01 C42.02 -0.01 49.81 -0.01 57.6 -0.01 C63.93 -0.01 70.25 -0.01 76.58 -0.01 C77.93 -0.01 77.93 -0.01 79.31 -0.01 C81.13 -0.01 82.96 -0.01 84.78 -0.01 C101.92 -0.01 119.06 -0.01 136.2 -0 C150.92 0 165.65 0 180.37 -0 C197.45 -0.01 214.52 -0.01 231.6 -0.01 C233.42 -0.01 235.24 -0.01 237.06 -0.01 C237.95 -0.01 238.85 -0.01 239.77 -0.01 C246.09 -0.01 252.42 -0.01 258.74 -0.01 C266.44 -0.01 274.14 -0.01 281.84 -0.01 C285.78 -0 289.71 -0 293.64 -0.01 C297.24 -0.01 300.83 -0.01 304.43 -0 C306.36 -0 308.29 -0 310.22 -0.01 C311.35 -0.01 312.48 -0 313.64 0 C314.62 0 315.61 0 316.62 0 C318.82 0.13 318.82 0.13 319.82 1.13 C321.1 1.39 322.38 1.66 323.69 1.94 C333 3.94 341.44 7.69 349.82 12.13 C349.82 12.79 349.82 13.45 349.82 14.13 C350.62 14.25 350.62 14.25 351.44 14.38 C354.69 15.4 357.11 17.09 359.82 19.13 C359.82 19.79 359.82 20.45 359.82 21.13 C360.66 21.47 360.66 21.47 361.51 21.81 C364.46 23.49 366.54 25.66 368.82 28.13 C369.59 28.94 370.35 29.76 371.14 30.61 C377.82 37.86 377.82 37.86 377.82 40.13 C378.48 40.13 379.14 40.13 379.82 40.13 C380.15 41.45 380.48 42.77 380.82 44.13 C381.96 44.12 383.11 44.11 384.29 44.11 C395.2 44.04 406.11 44 417.02 43.97 C422.63 43.95 428.24 43.93 433.84 43.9 C492.89 43.55 492.89 43.55 517.82 51.13 C519.8 51.59 521.78 52.05 523.76 52.5 C536.57 55.71 548.32 61.11 559.98 67.18 C562.69 68.57 565.45 69.87 568.19 71.19 C573.81 74.01 578.76 77.41 583.82 81.13 C585 81.97 586.19 82.81 587.38 83.65 C599.65 92.35 599.65 92.35 602.82 95.13 C602.82 95.79 602.82 96.45 602.82 97.13 C603.38 97.37 603.94 97.62 604.52 97.88 C607.21 99.34 609.28 101.09 611.57 103.13 C612.37 103.83 613.17 104.53 613.99 105.25 C615.82 107.13 615.82 107.13 615.82 109.13 C616.48 109.13 617.14 109.13 617.82 109.13 C619.55 110.81 619.55 110.81 621.44 113 C622.08 113.72 622.71 114.44 623.36 115.18 C624.82 117.13 624.82 117.13 624.82 119.13 C625.48 119.13 626.14 119.13 626.82 119.13 C629.82 122.59 629.82 122.59 629.82 125.13 C630.48 125.13 631.14 125.13 631.82 125.13 C632.15 126.45 632.48 127.77 632.82 129.13 C633.48 129.13 634.14 129.13 634.82 129.13 C636.42 131.24 637.88 133.34 639.32 135.56 C639.98 136.57 639.98 136.57 640.66 137.61 C651.14 153.79 660.81 170.36 665.82 189.13 C666.29 190.55 666.77 191.96 667.26 193.38 C676.01 219.41 677.12 244.62 677.07 271.82 C677.06 276.16 677.07 280.49 677.07 284.83 C677.08 292.41 677.08 300 677.07 307.59 C677.06 318.87 677.06 330.15 677.07 341.43 C677.07 360.41 677.07 379.39 677.06 398.37 C677.05 417.16 677.05 435.94 677.05 454.73 C677.05 455.9 677.05 457.07 677.05 458.28 C677.05 463.02 677.05 467.77 677.05 472.52 C677.05 517.03 677.04 561.53 677.02 606.04 C677.01 645.6 677 685.16 677.01 724.71 C677.01 727.26 677.01 729.8 677.01 732.34 C677.01 733.6 677.01 734.85 677.01 736.15 C677.01 742.47 677.01 748.8 677.01 755.12 C677.01 756.37 677.01 757.62 677.01 758.91 C677.01 791.96 677 825.01 677 858.05 C676.99 859.23 676.99 860.4 676.99 861.62 C676.99 866.34 676.99 871.07 676.99 875.79 C676.99 892.24 676.99 908.7 676.99 925.15 C676.99 946.34 676.98 967.53 676.97 988.72 C676.97 999.94 676.96 1011.15 676.97 1022.36 C676.97 1029.84 676.96 1037.32 676.96 1044.8 C676.95 1049.07 676.95 1053.33 676.96 1057.6 C676.96 1061.48 676.96 1065.36 676.95 1069.24 C676.95 1070.63 676.95 1072.03 676.95 1073.43 C676.95 1075.32 676.95 1077.21 676.95 1079.11 C676.95 1080.16 676.95 1081.21 676.95 1082.29 C676.82 1085.01 676.4 1087.47 675.82 1090.13 C675.7 1092.25 675.59 1094.38 675.51 1096.5 C675.07 1103.25 673.66 1109.21 671.76 1115.65 C670.74 1119.12 670.74 1119.12 670.31 1122.77 C669.86 1125.84 669.18 1128.12 667.94 1130.94 C666.56 1134.22 665.39 1137.44 664.44 1140.88 C658.67 1160.71 647.15 1178.62 635.44 1195.44 C634.66 1196.58 634.66 1196.58 633.86 1197.74 C633.36 1198.44 632.87 1199.14 632.36 1199.86 C631.92 1200.49 631.48 1201.12 631.02 1201.77 C630.62 1202.22 630.23 1202.67 629.82 1203.13 C629.16 1203.13 628.5 1203.13 627.82 1203.13 C627.6 1203.67 627.37 1204.21 627.14 1204.76 C625.39 1207.89 623.07 1210.35 620.63 1212.94 C620.14 1213.47 619.64 1214 619.14 1214.55 C613.66 1220.41 608.2 1226.23 601.82 1231.13 C601.16 1231.13 600.5 1231.13 599.82 1231.13 C599.82 1231.79 599.82 1232.45 599.82 1233.13 C597.46 1235.09 595.1 1236.93 592.63 1238.75 C591.91 1239.29 591.18 1239.83 590.43 1240.38 C581.24 1247.11 571.72 1252.86 561.46 1257.82 C559.31 1258.88 557.29 1260 555.26 1261.25 C551.45 1263.33 547.64 1264.71 543.55 1266.13 C541.19 1266.99 539.01 1267.96 536.76 1269.06 C529.49 1272.39 521.53 1274.12 513.82 1276.13 C512.76 1276.41 512.76 1276.41 511.69 1276.7 C507.76 1277.73 504 1278.42 499.94 1278.69 C496.24 1278.89 496.24 1278.89 492.82 1280.13 C491.3 1280.22 489.78 1280.25 488.26 1280.25 C486.81 1280.25 486.81 1280.25 485.33 1280.26 C484.26 1280.26 483.19 1280.25 482.08 1280.25 C480.95 1280.25 479.81 1280.25 478.64 1280.26 C475.46 1280.26 472.29 1280.26 469.11 1280.25 C465.66 1280.25 462.21 1280.26 458.76 1280.26 C452.71 1280.26 446.66 1280.26 440.61 1280.26 C431.61 1280.25 422.62 1280.26 413.62 1280.26 C397.55 1280.26 381.49 1280.26 365.42 1280.26 C351.36 1280.26 337.3 1280.26 323.24 1280.26 C322.31 1280.26 321.38 1280.26 320.42 1280.26 C316.64 1280.26 312.86 1280.26 309.08 1280.26 C273.6 1280.26 238.11 1280.26 202.63 1280.26 C171.08 1280.25 139.52 1280.25 107.97 1280.26 C72.55 1280.26 37.13 1280.26 1.72 1280.26 C-2.06 1280.26 -5.83 1280.26 -9.6 1280.26 C-11 1280.26 -11 1280.26 -12.42 1280.26 C-26.47 1280.26 -40.52 1280.26 -54.58 1280.26 C-70.55 1280.26 -86.53 1280.26 -102.5 1280.26 C-111.45 1280.26 -120.4 1280.26 -129.35 1280.26 C-135.31 1280.26 -141.28 1280.26 -147.25 1280.26 C-150.65 1280.25 -154.06 1280.25 -157.47 1280.26 C-161.13 1280.26 -164.79 1280.26 -168.44 1280.25 C-169.52 1280.25 -170.59 1280.26 -171.69 1280.26 C-172.66 1280.26 -173.63 1280.25 -174.63 1280.25 C-175.46 1280.25 -176.3 1280.25 -177.16 1280.25 C-179.18 1280.13 -179.18 1280.13 -181.18 1279.13 C-182.76 1278.99 -184.35 1278.9 -185.93 1278.81 C-192.97 1278.24 -199.45 1276.2 -206.18 1274.13 C-208.51 1273.46 -210.85 1272.79 -213.18 1272.13 C-219.79 1270.23 -226.16 1268.39 -232.23 1265.12 C-234.46 1263.98 -236.72 1263.09 -239.06 1262.19 C-244.27 1260.16 -249.22 1257.7 -254.18 1255.13 C-254.18 1254.47 -254.18 1253.81 -254.18 1253.13 C-254.77 1253 -255.35 1252.88 -255.96 1252.75 C-258.2 1252.12 -259.79 1251.31 -261.75 1250.09 C-262.42 1249.67 -263.08 1249.26 -263.77 1248.84 C-264.46 1248.4 -265.15 1247.96 -265.87 1247.5 C-266.58 1247.05 -267.29 1246.6 -268.03 1246.14 C-272.71 1243.16 -277.18 1240.02 -281.48 1236.5 C-283.34 1234.95 -283.34 1234.95 -286.18 1233.13 C-286.18 1232.47 -286.18 1231.81 -286.18 1231.13 C-286.77 1230.86 -287.35 1230.59 -287.96 1230.31 C-297.81 1225.06 -307.58 1214 -314.18 1205.13 C-314.18 1204.47 -314.18 1203.81 -314.18 1203.13 C-314.84 1203.13 -315.5 1203.13 -316.18 1203.13 C-317.38 1201.77 -317.38 1201.77 -318.72 1199.86 C-319.46 1198.81 -319.46 1198.81 -320.22 1197.74 C-321 1196.6 -321 1196.6 -321.81 1195.44 C-322.35 1194.66 -322.88 1193.89 -323.44 1193.09 C-336.97 1173.49 -348.4 1152.84 -354.45 1129.69 C-354.93 1127.21 -354.93 1127.21 -356.18 1126.13 C-356.66 1124.05 -357.14 1121.97 -357.58 1119.88 C-357.99 1118.02 -358.43 1116.16 -358.91 1114.31 C-363.97 1094.3 -363.47 1073.87 -363.44 1053.39 C-363.43 1049.07 -363.44 1044.74 -363.44 1040.42 C-363.45 1032.85 -363.45 1025.29 -363.45 1017.72 C-363.44 1006.47 -363.44 995.22 -363.45 983.97 C-363.46 963.88 -363.46 943.78 -363.45 923.69 C-363.45 906.1 -363.45 888.52 -363.45 870.93 C-363.45 869.76 -363.45 868.6 -363.45 867.39 C-363.45 862.65 -363.45 857.91 -363.45 853.17 C-363.46 808.73 -363.45 764.29 -363.44 719.85 C-363.43 680.39 -363.43 640.93 -363.44 601.46 C-363.45 557.1 -363.46 512.74 -363.45 468.38 C-363.45 463.65 -363.45 458.92 -363.45 454.19 C-363.45 453.02 -363.45 451.86 -363.45 450.66 C-363.45 433.08 -363.45 415.51 -363.45 397.94 C-363.46 377.95 -363.46 357.97 -363.45 337.98 C-363.44 326.81 -363.44 315.63 -363.45 304.45 C-363.45 296.98 -363.45 289.5 -363.44 282.03 C-363.44 277.77 -363.43 273.52 -363.44 269.27 C-363.47 249.45 -363.47 230.01 -358.74 210.63 C-358.54 209.74 -358.33 208.86 -358.12 207.95 C-356.3 200.19 -354.35 192.42 -351.05 185.14 C-349.9 182.49 -348.93 179.78 -347.93 177.06 C-340.41 157.54 -329.36 139.33 -316.18 123.13 C-315.36 121.97 -315.36 121.97 -314.53 120.78 C-314.08 120.24 -313.64 119.69 -313.18 119.13 C-312.52 119.13 -311.86 119.13 -311.18 119.13 C-310.95 118.59 -310.73 118.05 -310.49 117.5 C-308.72 114.3 -306.64 111.84 -304.18 109.13 C-303.52 109.13 -302.86 109.13 -302.18 109.13 C-301.69 107.64 -301.69 107.64 -301.18 106.13 C-300.52 106.13 -299.86 106.13 -299.18 106.13 C-299.18 105.47 -299.18 104.81 -299.18 104.13 C-297.5 102.4 -297.5 102.4 -295.31 100.5 C-294.59 99.87 -293.87 99.24 -293.13 98.59 C-291.18 97.13 -291.18 97.13 -289.18 97.13 C-288.69 95.64 -288.69 95.64 -288.18 94.13 C-286.71 92.76 -286.71 92.76 -284.83 91.38 C-284.14 90.87 -283.45 90.37 -282.75 89.84 C-282.02 89.32 -281.3 88.79 -280.56 88.25 C-279.86 87.73 -279.16 87.22 -278.43 86.68 C-276.36 85.15 -274.27 83.64 -272.18 82.13 C-271.57 81.68 -270.97 81.23 -270.34 80.77 C-266.44 77.92 -262.42 75.43 -258.18 73.13 C-257.52 72.77 -256.86 72.41 -256.18 72.04 C-248.31 67.78 -240.45 63.57 -232.18 60.13 C-231.11 59.63 -230.04 59.14 -228.93 58.63 C-223.52 56.32 -217.82 54.78 -212.18 53.13 C-210.98 52.77 -209.78 52.42 -208.54 52.05 C-178.28 43.25 -148.15 43.73 -116.89 43.92 C-111.27 43.95 -105.65 43.96 -100.04 43.98 C-89.08 44.01 -78.13 44.06 -67.18 44.13 C-66.9 43.36 -66.62 42.6 -66.33 41.81 C-64.82 38.3 -62.47 35.85 -59.87 33.13 C-59.39 32.62 -58.92 32.11 -58.43 31.59 C-53.87 26.72 -49.24 22.03 -44.06 17.81 C-42.78 16.77 -42.78 16.77 -41.48 15.7 C-39.18 14.13 -39.18 14.13 -36.18 14.13 C-36.18 13.47 -36.18 12.81 -36.18 12.13 C-33.47 10.83 -30.77 9.54 -28.06 8.25 C-27.29 7.89 -26.53 7.52 -25.75 7.15 C-19.25 4.06 -13.35 2.11 -6.18 1.13 C-4.48 -0.57 -2.32 0 0 0 Z " fill="#E5EEFC" transform="translate(483.18028259277344,-0.1258411407470703)"/>
<path d="M0 0 C1.13 -0 2.26 -0.01 3.42 -0.01 C4.68 -0.01 5.94 -0 7.23 -0 C8.57 -0 9.91 -0 11.24 -0.01 C14.93 -0.01 18.62 -0.01 22.31 -0 C26.29 -0 30.26 -0.01 34.23 -0.01 C42.02 -0.01 49.81 -0.01 57.6 -0.01 C63.93 -0.01 70.25 -0.01 76.58 -0.01 C77.93 -0.01 77.93 -0.01 79.31 -0.01 C81.13 -0.01 82.96 -0.01 84.78 -0.01 C101.92 -0.01 119.06 -0.01 136.2 -0 C150.92 0 165.65 0 180.37 -0 C197.45 -0.01 214.52 -0.01 231.6 -0.01 C233.42 -0.01 235.24 -0.01 237.06 -0.01 C237.95 -0.01 238.85 -0.01 239.77 -0.01 C246.09 -0.01 252.42 -0.01 258.74 -0.01 C266.44 -0.01 274.14 -0.01 281.84 -0.01 C285.78 -0 289.71 -0 293.64 -0.01 C297.24 -0.01 300.83 -0.01 304.43 -0 C306.36 -0 308.29 -0 310.22 -0.01 C311.35 -0.01 312.48 -0 313.64 0 C314.62 0 315.61 0 316.62 0 C318.82 0.13 318.82 0.13 319.82 1.13 C321.1 1.39 322.38 1.66 323.69 1.94 C333 3.94 341.44 7.69 349.82 12.13 C349.82 12.79 349.82 13.45 349.82 14.13 C350.62 14.25 350.62 14.25 351.44 14.38 C354.69 15.4 357.11 17.09 359.82 19.13 C359.82 19.79 359.82 20.45 359.82 21.13 C360.66 21.47 360.66 21.47 361.51 21.81 C364.46 23.49 366.54 25.66 368.82 28.13 C369.59 28.94 370.35 29.76 371.14 30.61 C377.82 37.86 377.82 37.86 377.82 40.13 C378.48 40.13 379.14 40.13 379.82 40.13 C380.15 41.45 380.48 42.77 380.82 44.13 C381.96 44.12 383.11 44.11 384.29 44.11 C395.2 44.04 406.11 44 417.02 43.97 C422.63 43.95 428.24 43.93 433.84 43.9 C492.89 43.55 492.89 43.55 517.82 51.13 C519.8 51.59 521.78 52.05 523.76 52.5 C536.57 55.71 548.32 61.11 559.98 67.18 C562.69 68.57 565.45 69.87 568.19 71.19 C573.81 74.01 578.76 77.41 583.82 81.13 C585 81.97 586.19 82.81 587.38 83.65 C599.65 92.35 599.65 92.35 602.82 95.13 C602.82 95.79 602.82 96.45 602.82 97.13 C603.38 97.37 603.94 97.62 604.52 97.88 C607.21 99.34 609.28 101.09 611.57 103.13 C612.37 103.83 613.17 104.53 613.99 105.25 C615.82 107.13 615.82 107.13 615.82 109.13 C616.48 109.13 617.14 109.13 617.82 109.13 C619.55 110.81 619.55 110.81 621.44 113 C622.08 113.72 622.71 114.44 623.36 115.18 C624.82 117.13 624.82 117.13 624.82 119.13 C625.48 119.13 626.14 119.13 626.82 119.13 C629.82 122.59 629.82 122.59 629.82 125.13 C630.48 125.13 631.14 125.13 631.82 125.13 C632.15 126.45 632.48 127.77 632.82 129.13 C633.48 129.13 634.14 129.13 634.82 129.13 C636.42 131.24 637.88 133.34 639.32 135.56 C639.98 136.57 639.98 136.57 640.66 137.61 C651.14 153.79 660.81 170.36 665.82 189.13 C666.29 190.55 666.77 191.96 667.26 193.38 C676.01 219.41 677.12 244.62 677.07 271.82 C677.06 276.16 677.07 280.49 677.07 284.83 C677.08 292.41 677.08 300 677.07 307.59 C677.06 318.87 677.06 330.15 677.07 341.43 C677.07 360.41 677.07 379.39 677.06 398.37 C677.05 417.16 677.05 435.94 677.05 454.73 C677.05 455.9 677.05 457.07 677.05 458.28 C677.05 463.02 677.05 467.77 677.05 472.52 C677.05 517.03 677.04 561.53 677.02 606.04 C677.01 645.6 677 685.16 677.01 724.71 C677.01 727.26 677.01 729.8 677.01 732.34 C677.01 733.6 677.01 734.85 677.01 736.15 C677.01 742.47 677.01 748.8 677.01 755.12 C677.01 756.37 677.01 757.62 677.01 758.91 C677.01 791.96 677 825.01 677 858.05 C676.99 859.23 676.99 860.4 676.99 861.62 C676.99 866.34 676.99 871.07 676.99 875.79 C676.99 892.24 676.99 908.7 676.99 925.15 C676.99 946.34 676.98 967.53 676.97 988.72 C676.97 999.94 676.96 1011.15 676.97 1022.36 C676.97 1029.84 676.96 1037.32 676.96 1044.8 C676.95 1049.07 676.95 1053.33 676.96 1057.6 C676.96 1061.48 676.96 1065.36 676.95 1069.24 C676.95 1070.63 676.95 1072.03 676.95 1073.43 C676.95 1075.32 676.95 1077.21 676.95 1079.11 C676.95 1080.16 676.95 1081.21 676.95 1082.29 C676.82 1085.01 676.4 1087.47 675.82 1090.13 C675.7 1092.25 675.59 1094.38 675.51 1096.5 C675.07 1103.25 673.66 1109.21 671.76 1115.65 C670.74 1119.12 670.74 1119.12 670.31 1122.77 C669.86 1125.84 669.18 1128.12 667.94 1130.94 C666.56 1134.22 665.39 1137.44 664.44 1140.88 C658.67 1160.71 647.15 1178.62 635.44 1195.44 C634.66 1196.58 634.66 1196.58 633.86 1197.74 C633.36 1198.44 632.87 1199.14 632.36 1199.86 C631.92 1200.49 631.48 1201.12 631.02 1201.77 C630.62 1202.22 630.23 1202.67 629.82 1203.13 C629.16 1203.13 628.5 1203.13 627.82 1203.13 C627.6 1203.67 627.37 1204.21 627.14 1204.76 C625.39 1207.89 623.07 1210.35 620.63 1212.94 C620.14 1213.47 619.64 1214 619.14 1214.55 C613.66 1220.41 608.2 1226.23 601.82 1231.13 C601.16 1231.13 600.5 1231.13 599.82 1231.13 C599.82 1231.79 599.82 1232.45 599.82 1233.13 C597.46 1235.09 595.1 1236.93 592.63 1238.75 C591.91 1239.29 591.18 1239.83 590.43 1240.38 C581.24 1247.11 571.72 1252.86 561.46 1257.82 C559.31 1258.88 557.29 1260 555.26 1261.25 C551.45 1263.33 547.64 1264.71 543.55 1266.13 C541.19 1266.99 539.01 1267.96 536.76 1269.06 C529.49 1272.39 521.53 1274.12 513.82 1276.13 C512.76 1276.41 512.76 1276.41 511.69 1276.7 C507.76 1277.73 504 1278.42 499.94 1278.69 C496.24 1278.89 496.24 1278.89 492.82 1280.13 C491.3 1280.22 489.78 1280.25 488.26 1280.25 C486.81 1280.25 486.81 1280.25 485.33 1280.26 C484.26 1280.26 483.19 1280.25 482.08 1280.25 C480.95 1280.25 479.81 1280.25 478.64 1280.26 C475.46 1280.26 472.29 1280.26 469.11 1280.25 C465.66 1280.25 462.21 1280.26 458.76 1280.26 C452.71 1280.26 446.66 1280.26 440.61 1280.26 C431.61 1280.25 422.62 1280.26 413.62 1280.26 C397.55 1280.26 381.49 1280.26 365.42 1280.26 C351.36 1280.26 337.3 1280.26 323.24 1280.26 C322.31 1280.26 321.38 1280.26 320.42 1280.26 C316.64 1280.26 312.86 1280.26 309.08 1280.26 C273.6 1280.26 238.11 1280.26 202.63 1280.26 C171.08 1280.25 139.52 1280.25 107.97 1280.26 C72.55 1280.26 37.13 1280.26 1.72 1280.26 C-2.06 1280.26 -5.83 1280.26 -9.6 1280.26 C-11 1280.26 -11 1280.26 -12.42 1280.26 C-26.47 1280.26 -40.52 1280.26 -54.58 1280.26 C-70.55 1280.26 -86.53 1280.26 -102.5 1280.26 C-111.45 1280.26 -120.4 1280.26 -129.35 1280.26 C-135.31 1280.26 -141.28 1280.26 -147.25 1280.26 C-150.65 1280.25 -154.06 1280.25 -157.47 1280.26 C-161.13 1280.26 -164.79 1280.26 -168.44 1280.25 C-169.52 1280.25 -170.59 1280.26 -171.69 1280.26 C-172.66 1280.26 -173.63 1280.25 -174.63 1280.25 C-175.46 1280.25 -176.3 1280.25 -177.16 1280.25 C-179.18 1280.13 -179.18 1280.13 -181.18 1279.13 C-182.76 1278.99 -184.35 1278.9 -185.93 1278.81 C-192.97 1278.24 -199.45 1276.2 -206.18 1274.13 C-208.51 1273.46 -210.85 1272.79 -213.18 1272.13 C-219.79 1270.23 -226.16 1268.39 -232.23 1265.12 C-234.46 1263.98 -236.72 1263.09 -239.06 1262.19 C-244.27 1260.16 -249.22 1257.7 -254.18 1255.13 C-254.18 1254.47 -254.18 1253.81 -254.18 1253.13 C-254.77 1253 -255.35 1252.88 -255.96 1252.75 C-258.2 1252.12 -259.79 1251.31 -261.75 1250.09 C-262.42 1249.67 -263.08 1249.26 -263.77 1248.84 C-264.46 1248.4 -265.15 1247.96 -265.87 1247.5 C-266.58 1247.05 -267.29 1246.6 -268.03 1246.14 C-272.71 1243.16 -277.18 1240.02 -281.48 1236.5 C-283.34 1234.95 -283.34 1234.95 -286.18 1233.13 C-286.18 1232.47 -286.18 1231.81 -286.18 1231.13 C-286.77 1230.86 -287.35 1230.59 -287.96 1230.31 C-297.81 1225.06 -307.58 1214 -314.18 1205.13 C-314.18 1204.47 -314.18 1203.81 -314.18 1203.13 C-314.84 1203.13 -315.5 1203.13 -316.18 1203.13 C-317.38 1201.77 -317.38 1201.77 -318.72 1199.86 C-319.46 1198.81 -319.46 1198.81 -320.22 1197.74 C-321 1196.6 -321 1196.6 -321.81 1195.44 C-322.35 1194.66 -322.88 1193.89 -323.44 1193.09 C-336.97 1173.49 -348.4 1152.84 -354.45 1129.69 C-354.93 1127.21 -354.93 1127.21 -356.18 1126.13 C-356.66 1124.05 -357.14 1121.97 -357.58 1119.88 C-357.99 1118.02 -358.43 1116.16 -358.91 1114.31 C-363.97 1094.3 -363.47 1073.87 -363.44 1053.39 C-363.43 1049.07 -363.44 1044.74 -363.44 1040.42 C-363.45 1032.85 -363.45 1025.29 -363.45 1017.72 C-363.44 1006.47 -363.44 995.22 -363.45 983.97 C-363.46 963.88 -363.46 943.78 -363.45 923.69 C-363.45 906.1 -363.45 888.52 -363.45 870.93 C-363.45 869.76 -363.45 868.6 -363.45 867.39 C-363.45 862.65 -363.45 857.91 -363.45 853.17 C-363.46 808.73 -363.45 764.29 -363.44 719.85 C-363.43 680.39 -363.43 640.93 -363.44 601.46 C-363.45 557.1 -363.46 512.74 -363.45 468.38 C-363.45 463.65 -363.45 458.92 -363.45 454.19 C-363.45 453.02 -363.45 451.86 -363.45 450.66 C-363.45 433.08 -363.45 415.51 -363.45 397.94 C-363.46 377.95 -363.46 357.97 -363.45 337.98 C-363.44 326.81 -363.44 315.63 -363.45 304.45 C-363.45 296.98 -363.45 289.5 -363.44 282.03 C-363.44 277.77 -363.43 273.52 -363.44 269.27 C-363.47 249.45 -363.47 230.01 -358.74 210.63 C-358.54 209.74 -358.33 208.86 -358.12 207.95 C-356.3 200.19 -354.35 192.42 -351.05 185.14 C-349.9 182.49 -348.93 179.78 -347.93 177.06 C-340.41 157.54 -329.36 139.33 -316.18 123.13 C-315.36 121.97 -315.36 121.97 -314.53 120.78 C-314.08 120.24 -313.64 119.69 -313.18 119.13 C-312.52 119.13 -311.86 119.13 -311.18 119.13 C-310.95 118.59 -310.73 118.05 -310.49 117.5 C-308.72 114.3 -306.64 111.84 -304.18 109.13 C-303.52 109.13 -302.86 109.13 -302.18 109.13 C-301.69 107.64 -301.69 107.64 -301.18 106.13 C-300.52 106.13 -299.86 106.13 -299.18 106.13 C-299.18 105.47 -299.18 104.81 -299.18 104.13 C-297.5 102.4 -297.5 102.4 -295.31 100.5 C-294.59 99.87 -293.87 99.24 -293.13 98.59 C-291.18 97.13 -291.18 97.13 -289.18 97.13 C-288.69 95.64 -288.69 95.64 -288.18 94.13 C-286.71 92.76 -286.71 92.76 -284.83 91.38 C-284.14 90.87 -283.45 90.37 -282.75 89.84 C-282.02 89.32 -281.3 88.79 -280.56 88.25 C-279.86 87.73 -279.16 87.22 -278.43 86.68 C-276.36 85.15 -274.27 83.64 -272.18 82.13 C-271.57 81.68 -270.97 81.23 -270.34 80.77 C-266.44 77.92 -262.42 75.43 -258.18 73.13 C-257.52 72.77 -256.86 72.41 -256.18 72.04 C-248.31 67.78 -240.45 63.57 -232.18 60.13 C-231.11 59.63 -230.04 59.14 -228.93 58.63 C-223.52 56.32 -217.82 54.78 -212.18 53.13 C-210.98 52.77 -209.78 52.42 -208.54 52.05 C-178.28 43.25 -148.15 43.73 -116.89 43.92 C-111.27 43.95 -105.65 43.96 -100.04 43.98 C-89.08 44.01 -78.13 44.06 -67.18 44.13 C-66.9 43.36 -66.62 42.6 -66.33 41.81 C-64.82 38.3 -62.47 35.85 -59.87 33.13 C-59.39 32.62 -58.92 32.11 -58.43 31.59 C-53.87 26.72 -49.24 22.03 -44.06 17.81 C-42.78 16.77 -42.78 16.77 -41.48 15.7 C-39.18 14.13 -39.18 14.13 -36.18 14.13 C-36.18 13.47 -36.18 12.81 -36.18 12.13 C-33.47 10.83 -30.77 9.54 -28.06 8.25 C-27.29 7.89 -26.53 7.52 -25.75 7.15 C-19.25 4.06 -13.35 2.11 -6.18 1.13 C-4.48 -0.57 -2.32 0 0 0 Z M-33.13 59.4 C-43.35 73.06 -45.5 88.28 -45.48 104.86 C-45.48 106.28 -45.49 107.69 -45.49 109.1 C-45.5 112.05 -45.5 114.99 -45.5 117.94 C-45.49 121.68 -45.51 125.41 -45.53 129.15 C-45.55 132.06 -45.55 134.98 -45.54 137.89 C-45.54 139.27 -45.55 140.64 -45.56 142.02 C-45.68 161.12 -41.14 175.7 -28.12 189.63 C-14.18 203.14 2.33 207.29 21.14 207.26 C22.03 207.27 22.93 207.27 23.85 207.27 C26.82 207.28 29.79 207.28 32.76 207.28 C34.9 207.29 37.04 207.29 39.18 207.3 C43.77 207.31 48.37 207.32 52.96 207.33 C60.23 207.34 67.49 207.36 74.76 207.38 C95.41 207.44 116.07 207.49 136.72 207.53 C148.14 207.55 159.56 207.57 170.97 207.62 C177.01 207.64 183.05 207.65 189.09 207.65 C194.76 207.66 200.44 207.67 206.11 207.7 C208.19 207.71 210.28 207.71 212.36 207.7 C215.2 207.7 218.04 207.71 220.88 207.73 C221.71 207.73 222.53 207.72 223.38 207.72 C228.26 207.77 231.58 208.46 235.82 211.13 C237.46 213.06 237.46 213.06 238.63 215.13 C239.03 215.81 239.43 216.49 239.84 217.19 C241.91 221.29 242.12 224.57 241.82 229.13 C241 231.58 239.95 233.78 238.82 236.13 C238.49 237.12 238.16 238.11 237.82 239.13 C236.01 240.19 236.01 240.19 233.82 241.13 C233.2 241.47 232.58 241.81 231.93 242.17 C229.68 243.19 228.26 243.38 225.81 243.38 C224.62 243.39 224.62 243.39 223.4 243.4 C222.1 243.39 222.1 243.39 220.78 243.39 C219.85 243.39 218.93 243.39 217.98 243.4 C214.87 243.41 211.76 243.4 208.66 243.4 C206.43 243.4 204.21 243.41 201.99 243.42 C195.94 243.43 189.89 243.43 183.84 243.43 C178.78 243.43 173.73 243.43 168.67 243.44 C156.06 243.45 143.44 243.45 130.83 243.44 C119.89 243.44 108.96 243.45 98.03 243.47 C86.79 243.48 75.55 243.49 64.31 243.49 C58.01 243.49 51.71 243.49 45.4 243.5 C39.46 243.52 33.53 243.51 27.59 243.5 C25.42 243.5 23.25 243.5 21.08 243.51 C-0.23 243.59 -20.23 240.44 -38.18 228.13 C-38.72 227.76 -39.27 227.39 -39.83 227.02 C-50.94 219.5 -63.34 210.65 -68.13 197.52 C-69.89 194.98 -69.89 194.98 -72.21 194.66 C-74.98 194.48 -77.71 194.46 -80.49 194.5 C-81.52 194.49 -82.56 194.49 -83.63 194.49 C-85.83 194.49 -88.04 194.5 -90.24 194.53 C-93.55 194.56 -96.85 194.55 -100.15 194.53 C-130.18 194.55 -158.36 201.47 -180.18 223.13 C-181.05 223.95 -181.91 224.78 -182.81 225.63 C-183.59 226.45 -184.37 227.28 -185.18 228.13 C-185.78 228.76 -186.39 229.39 -187.01 230.04 C-203.96 248.35 -212.36 272.24 -212.31 296.98 C-212.32 297.94 -212.32 298.91 -212.32 299.91 C-212.33 303.15 -212.33 306.4 -212.33 309.64 C-212.33 311.99 -212.33 314.34 -212.34 316.69 C-212.34 322.47 -212.35 328.25 -212.35 334.03 C-212.35 340.95 -212.36 347.87 -212.37 354.8 C-212.39 367.58 -212.4 380.36 -212.41 393.13 C-212.42 411.39 -212.45 429.64 -212.47 447.9 C-212.48 455.22 -212.49 462.55 -212.5 469.88 C-212.5 470.69 -212.5 471.5 -212.5 472.34 C-212.53 491.71 -212.55 511.08 -212.57 530.45 C-212.57 531.3 -212.58 532.14 -212.58 533.02 C-212.6 552.79 -212.62 572.57 -212.64 592.34 C-212.64 593.2 -212.64 594.05 -212.64 594.92 C-212.64 599.21 -212.65 603.51 -212.65 607.8 C-212.65 608.64 -212.65 609.49 -212.65 610.37 C-212.66 612.08 -212.66 613.79 -212.66 615.5 C-212.69 643.77 -212.72 672.04 -212.76 700.31 C-212.77 704.3 -212.77 708.29 -212.78 712.28 C-212.78 713.07 -212.78 713.85 -212.78 714.66 C-212.8 727.31 -212.81 739.96 -212.82 752.6 C-212.82 765.31 -212.84 778.01 -212.86 790.72 C-212.87 797.6 -212.88 804.49 -212.88 811.37 C-212.88 817.67 -212.89 823.97 -212.9 830.27 C-212.91 832.55 -212.91 834.83 -212.9 837.11 C-212.9 840.21 -212.91 843.31 -212.92 846.4 C-212.92 847.29 -212.91 848.18 -212.91 849.1 C-212.96 856.53 -213.78 862.57 -219.18 868.13 C-222.94 870.87 -226.73 871.9 -231.18 873.13 C-231.28 878.06 -231.35 882.98 -231.4 887.91 C-231.42 889.59 -231.45 891.27 -231.48 892.95 C-231.53 895.36 -231.55 897.77 -231.57 900.18 C-231.59 900.93 -231.61 901.68 -231.63 902.45 C-231.66 906.67 -231.66 906.67 -229.37 910.05 C-227.03 911.26 -227.03 911.26 -223.81 912.25 C-218.91 914.23 -216.52 918.59 -214.18 923.13 C-213.29 926.05 -213.05 928.67 -213.04 931.71 C-213.04 932.63 -213.03 933.55 -213.03 934.49 C-213.02 935.49 -213.02 936.49 -213.02 937.52 C-213.01 939.1 -213.01 939.1 -213.01 940.72 C-213 943.02 -212.99 945.32 -212.98 947.62 C-212.97 951.27 -212.95 954.92 -212.93 958.57 C-212.87 968.95 -212.81 979.33 -212.78 989.71 C-212.76 996.07 -212.72 1002.42 -212.68 1008.77 C-212.66 1011.18 -212.66 1013.59 -212.65 1016 C-212.61 1045.1 -208.09 1072.95 -186.87 1094.45 C-185.54 1095.77 -185.54 1095.77 -184.18 1097.13 C-183.41 1097.95 -182.63 1098.77 -181.83 1099.62 C-165.79 1116.43 -140.69 1128.73 -117.26 1129.38 C-115.56 1129.39 -113.86 1129.39 -112.16 1129.38 C-111.21 1129.39 -110.26 1129.39 -109.29 1129.39 C-106.12 1129.4 -102.96 1129.4 -99.79 1129.39 C-97.5 1129.4 -95.2 1129.4 -92.9 1129.41 C-86.6 1129.42 -80.29 1129.42 -73.99 1129.42 C-67.89 1129.42 -61.79 1129.43 -55.68 1129.43 C-41.66 1129.45 -27.64 1129.46 -13.62 1129.46 C-2.78 1129.46 8.05 1129.46 18.88 1129.47 C22 1129.47 25.12 1129.47 28.24 1129.48 C29.41 1129.48 29.41 1129.48 30.59 1129.48 C52.41 1129.49 74.23 1129.5 96.05 1129.5 C96.88 1129.5 97.7 1129.5 98.54 1129.5 C102.71 1129.5 106.88 1129.5 111.05 1129.5 C112.29 1129.5 112.29 1129.5 113.55 1129.5 C115.23 1129.5 116.9 1129.5 118.58 1129.5 C144.6 1129.5 170.63 1129.51 196.66 1129.54 C225.93 1129.57 255.19 1129.59 284.45 1129.58 C287.58 1129.58 290.7 1129.58 293.82 1129.58 C294.59 1129.58 295.36 1129.58 296.15 1129.58 C308.5 1129.58 320.85 1129.6 333.2 1129.61 C345.63 1129.63 358.05 1129.63 370.47 1129.62 C377.2 1129.61 383.92 1129.61 390.65 1129.63 C396.81 1129.65 402.98 1129.64 409.14 1129.63 C411.36 1129.62 413.58 1129.63 415.8 1129.64 C447.55 1129.79 473.2 1120.48 496.57 1098.81 C515.02 1079.38 524.99 1053.77 524.95 1027.17 C524.96 1026.09 524.96 1025 524.96 1023.88 C524.97 1020.23 524.97 1016.58 524.97 1012.93 C524.97 1010.29 524.97 1007.65 524.98 1005.01 C524.99 998.51 524.99 992.02 524.99 985.52 C525 977.73 525.01 969.95 525.01 962.16 C525.03 943.35 525.05 924.55 525.05 905.74 C525.06 896.84 525.06 887.95 525.07 879.05 C525.09 848.61 525.1 818.17 525.11 787.73 C525.11 785.82 525.11 783.91 525.11 782 C525.11 781.05 525.11 780.11 525.11 779.13 C525.11 774.33 525.11 769.53 525.11 764.73 C525.12 763.3 525.12 763.3 525.12 761.85 C525.12 730.93 525.15 700.02 525.18 669.11 C525.21 636.44 525.23 603.76 525.24 571.09 C525.24 567.51 525.24 563.92 525.24 560.34 C525.24 559.46 525.24 558.57 525.24 557.66 C525.24 543.44 525.26 529.22 525.28 515 C525.3 500.72 525.3 486.44 525.29 472.16 C525.29 463.67 525.29 455.18 525.32 446.69 C525.33 441.02 525.33 435.36 525.32 429.69 C525.31 426.46 525.31 423.23 525.32 420 C525.34 416.52 525.33 413.05 525.31 409.58 C525.32 408.56 525.34 407.55 525.35 406.51 C525.37 401.17 525.37 401.17 522.95 396.57 C512.52 389.48 499.43 388.03 487.08 387.97 C486.35 387.96 485.62 387.96 484.87 387.95 C483.31 387.94 481.74 387.93 480.17 387.93 C477.68 387.91 475.18 387.9 472.69 387.87 C465.59 387.81 458.5 387.76 451.41 387.72 C447.06 387.7 442.7 387.67 438.35 387.62 C436.71 387.61 435.06 387.6 433.42 387.6 C408.77 387.54 387.56 380.57 368.82 364.13 C367.06 362.05 365.39 359.99 363.76 357.81 C363.13 357 363.13 357 362.48 356.17 C357.9 350.15 354.58 344.1 352.19 336.88 C351.59 335.07 351.59 335.07 350.97 333.24 C347.72 322.17 347.5 311.38 347.44 299.95 C347.42 298.2 347.41 296.46 347.39 294.72 C347.34 290.16 347.31 285.6 347.28 281.04 C347.22 273.73 347.16 266.41 347.09 259.09 C347.07 256.55 347.05 254 347.03 251.45 C347.02 249.89 347.01 248.33 346.99 246.77 C346.99 246.07 346.99 245.36 346.99 244.64 C346.95 241.01 346.67 237.65 345.82 234.13 C342.94 232.81 342.94 232.81 340.65 233.98 C339.8 234.42 338.95 234.86 338.07 235.31 C331.2 238.6 324.21 240.38 316.82 242.13 C316.02 242.32 315.22 242.52 314.39 242.72 C305.05 244.2 294.76 244.73 286.82 239.13 C283.31 236.16 282 234.11 281.58 229.45 C281.42 222.72 281.49 218.42 285.82 213.13 C291.64 208.3 297.21 207.27 304.57 206.63 C318.16 205.07 327.6 201.4 337.82 192.13 C338.6 191.43 339.39 190.74 340.19 190.03 C351.36 179.62 356.63 167.14 357.82 152.13 C357.97 147.68 357.98 143.24 357.99 138.8 C357.99 137.53 357.99 136.27 358 134.96 C358 132.29 358.01 129.62 358.01 126.95 C358 123.57 358.02 120.19 358.04 116.81 C358.05 113.53 358.05 110.26 358.05 106.99 C358.06 105.79 358.06 104.59 358.07 103.36 C358.02 82.66 352.55 66.86 338.13 51.88 C327 40.8 312.83 36.84 297.35 36.72 C296.23 36.73 295.11 36.74 293.95 36.74 C292.73 36.74 291.5 36.74 290.24 36.73 C286.87 36.72 283.5 36.72 280.14 36.73 C276.49 36.74 272.85 36.73 269.2 36.72 C262.08 36.71 254.95 36.71 247.82 36.72 C242.03 36.73 236.23 36.73 230.44 36.72 C229.2 36.72 229.2 36.72 227.93 36.72 C226.25 36.72 224.57 36.72 222.89 36.72 C207.16 36.71 191.43 36.72 175.69 36.74 C162.22 36.75 148.74 36.75 135.26 36.73 C119.58 36.72 103.9 36.71 88.22 36.72 C86.55 36.72 84.88 36.72 83.2 36.72 C81.97 36.73 81.97 36.73 80.71 36.73 C74.92 36.73 69.14 36.72 63.36 36.72 C56.3 36.71 49.25 36.71 42.19 36.73 C38.6 36.73 35 36.74 31.41 36.73 C27.5 36.72 23.59 36.73 19.68 36.74 C18.56 36.74 17.44 36.73 16.29 36.72 C-3.34 36.87 -20.32 44.41 -33.13 59.4 Z " fill="#000002" transform="translate(483.18028259277344,-0.1258411407470703)"/>
<path d="M0 0 C3.75 0.02 7.5 0.02 11.25 0.03 C14.86 0.03 18.47 0.04 22.08 0.05 C23.8 0.06 25.53 0.06 27.25 0.07 C29.64 0.07 32.02 0.09 34.41 0.1 C35.47 0.1 35.47 0.1 36.56 0.11 C41.42 0.15 41.42 0.15 42.53 1.26 C42.63 3.56 42.65 5.87 42.64 8.17 C42.65 8.89 42.65 9.61 42.65 10.36 C42.64 12.76 42.64 15.15 42.63 17.55 C42.63 19.21 42.63 20.86 42.62 22.52 C42.62 26.89 42.61 31.27 42.6 35.64 C42.59 40.09 42.59 44.55 42.58 49.01 C42.57 57.76 42.55 66.51 42.53 75.26 C41.58 75.29 40.64 75.32 39.66 75.34 C36.1 75.44 32.54 75.54 28.98 75.65 C27.45 75.69 25.92 75.73 24.38 75.78 C-15.69 76.88 -51.85 86.87 -81.47 115.26 C-82.31 116.07 -83.16 116.87 -84.03 117.7 C-84.84 118.55 -85.64 119.39 -86.47 120.26 C-87.11 120.92 -87.75 121.58 -88.41 122.26 C-105.73 140.63 -117.2 164.69 -122.47 189.26 C-122.65 190.05 -122.83 190.83 -123.02 191.63 C-125.21 202.48 -124.75 213.52 -124.73 224.53 C-124.73 226.92 -124.74 229.3 -124.74 231.68 C-124.75 236.85 -124.75 242.01 -124.75 247.18 C-124.74 254.87 -124.75 262.55 -124.76 270.23 C-124.77 284.76 -124.77 299.28 -124.77 313.8 C-124.77 325.01 -124.77 336.22 -124.78 347.43 C-124.78 349.04 -124.78 350.65 -124.78 352.26 C-124.78 354.69 -124.78 357.12 -124.78 359.54 C-124.79 382.11 -124.79 404.68 -124.79 427.24 C-124.79 428.52 -124.79 428.52 -124.79 429.82 C-124.79 434.13 -124.79 438.44 -124.79 442.75 C-124.79 443.6 -124.78 444.46 -124.78 445.34 C-124.78 447.07 -124.78 448.8 -124.78 450.53 C-124.78 477.48 -124.79 504.43 -124.8 531.38 C-124.83 561.66 -124.84 591.94 -124.83 622.22 C-124.83 625.45 -124.83 628.68 -124.83 631.91 C-124.83 633.1 -124.83 633.1 -124.83 634.31 C-124.83 646.32 -124.84 658.32 -124.85 670.32 C-124.86 683.97 -124.86 697.61 -124.85 711.25 C-124.84 718.89 -124.84 726.53 -124.86 734.16 C-124.87 739.86 -124.86 745.55 -124.85 751.25 C-124.84 753.56 -124.85 755.87 -124.85 758.18 C-124.86 761.31 -124.86 764.43 -124.84 767.56 C-124.85 768.47 -124.86 769.37 -124.87 770.31 C-124.82 776.02 -124.12 780.56 -119.93 784.84 C-119.38 785.21 -118.84 785.57 -118.28 785.95 C-117.75 786.33 -117.22 786.7 -116.68 787.09 C-113.43 788.82 -109.91 789.97 -106.47 791.26 C-106.14 803.47 -105.81 815.68 -105.47 828.26 C-108.77 829.25 -112.07 830.24 -115.47 831.26 C-120.34 834.13 -122.62 838.04 -124.47 843.26 C-125.02 847.08 -125.02 850.85 -124.99 854.7 C-124.99 855.82 -125 856.95 -125.01 858.1 C-125.03 861.8 -125.01 865.49 -125 869.19 C-125 871.78 -125.01 874.37 -125.01 876.96 C-125.02 882.38 -125.01 887.81 -124.99 893.24 C-124.97 899.46 -124.98 905.69 -125 911.91 C-125.02 917.95 -125.02 923.98 -125 930.02 C-125 932.56 -125 935.1 -125.01 937.65 C-125.06 952.38 -124.31 966.01 -120.47 980.26 C-120.03 981.89 -120.03 981.89 -119.59 983.55 C-118.89 986.03 -118.11 988.45 -117.28 990.89 C-116.84 992.19 -116.84 992.19 -116.39 993.51 C-111.97 1006.06 -105.58 1017.72 -97.47 1028.26 C-96.87 1029.07 -96.26 1029.87 -95.64 1030.7 C-74.44 1058.23 -41.82 1076.93 -7.59 1082.58 C6.48 1084.25 20.42 1084.41 34.57 1084.4 C36.8 1084.4 39.02 1084.4 41.25 1084.4 C47.33 1084.41 53.42 1084.41 59.5 1084.41 C65.4 1084.41 71.3 1084.41 77.19 1084.42 C90.74 1084.43 104.28 1084.43 117.83 1084.43 C128.29 1084.43 138.76 1084.43 149.22 1084.44 C152.24 1084.44 155.25 1084.44 158.27 1084.44 C159.02 1084.44 159.77 1084.44 160.55 1084.44 C181.64 1084.45 202.73 1084.45 223.81 1084.45 C225.01 1084.45 225.01 1084.45 226.22 1084.45 C230.25 1084.45 234.27 1084.45 238.3 1084.45 C239.5 1084.45 239.5 1084.45 240.72 1084.45 C242.34 1084.45 243.96 1084.45 245.57 1084.45 C270.72 1084.45 295.86 1084.46 321 1084.47 C349.28 1084.49 377.57 1084.49 405.85 1084.49 C408.87 1084.49 411.89 1084.49 414.91 1084.49 C415.65 1084.49 416.39 1084.49 417.16 1084.49 C429.09 1084.49 441.02 1084.5 452.94 1084.51 C464.95 1084.52 476.95 1084.52 488.95 1084.51 C495.45 1084.51 501.94 1084.51 508.43 1084.52 C514.39 1084.52 520.35 1084.52 526.3 1084.51 C528.45 1084.51 530.59 1084.51 532.73 1084.52 C550.19 1084.56 568.25 1084.55 585.09 1079.45 C586.01 1079.19 586.93 1078.92 587.88 1078.64 C605.98 1073.28 622.13 1064.45 636.53 1052.26 C637.06 1051.82 637.6 1051.37 638.14 1050.91 C652.28 1038.88 663.19 1024.82 671.53 1008.26 C672.09 1007.16 672.66 1006.07 673.24 1004.93 C684.22 982.39 685.98 959.76 685.92 935.03 C685.92 932.28 685.93 929.52 685.94 926.77 C685.95 920.81 685.95 914.85 685.94 908.89 C685.93 900.02 685.94 891.16 685.95 882.29 C685.97 866.45 685.98 850.61 685.97 834.77 C685.97 820.9 685.97 807.03 685.97 793.17 C685.97 791.3 685.97 789.44 685.97 787.58 C685.98 784.77 685.98 781.96 685.98 779.15 C685.99 753.06 685.99 726.97 685.99 700.87 C685.98 699.89 685.98 698.91 685.98 697.9 C685.98 689.91 685.98 681.93 685.98 673.95 C685.97 642.84 685.97 611.73 686 580.62 C686.02 545.62 686.04 510.63 686.03 475.64 C686.03 471.9 686.03 468.17 686.03 464.43 C686.03 463.05 686.03 463.05 686.03 461.64 C686.02 447.8 686.03 433.95 686.05 420.1 C686.06 404.34 686.06 388.57 686.04 372.81 C686.03 364 686.04 355.2 686.05 346.39 C686.06 340.49 686.06 334.59 686.04 328.69 C686.04 325.34 686.03 321.99 686.05 318.64 C686.29 251.7 659.25 190.15 612.34 142.83 C607.03 137.55 601.5 132.78 595.53 128.26 C594.58 127.5 593.64 126.74 592.66 125.95 C571.68 109.09 547.02 97.52 521.91 88.21 C519.53 87.26 519.53 87.26 518.53 86.26 C518.43 83.66 518.38 81.08 518.39 78.47 C518.38 77.25 518.38 77.25 518.38 76 C518.37 73.29 518.36 70.57 518.36 67.86 C518.36 65.98 518.36 64.11 518.35 62.23 C518.35 58.29 518.35 54.35 518.35 50.41 C518.35 45.35 518.33 40.29 518.32 35.23 C518.3 31.36 518.3 27.48 518.3 23.6 C518.3 21.73 518.3 19.87 518.29 18 C518.28 15.4 518.28 12.79 518.29 10.19 C518.28 9.41 518.28 8.63 518.27 7.83 C518.3 2.49 518.3 2.49 520.53 0.26 C522.95 0.07 525.25 -0.01 527.66 0.01 C528.77 0 528.77 0 529.89 -0.01 C532.34 -0.01 534.78 -0.01 537.23 -0 C538.93 -0 540.64 -0 542.35 -0.01 C545.94 -0.01 549.54 -0.01 553.13 0 C557.69 0.01 562.25 0.01 566.81 -0 C570.35 -0.01 573.88 -0.01 577.42 -0 C579.1 -0 580.78 -0 582.46 -0.01 C613.6 -0.08 644.11 6.19 671.53 21.26 C672.55 21.81 673.57 22.35 674.62 22.9 C698.44 36.08 719.11 56.27 733.53 79.26 C734.28 80.41 735.03 81.56 735.78 82.71 C755.91 114.3 762.73 148.76 762.66 185.87 C762.66 187.29 762.66 188.7 762.66 190.11 C762.67 193.96 762.66 197.81 762.66 201.66 C762.66 205.85 762.66 210.05 762.66 214.25 C762.67 221.6 762.67 228.95 762.66 236.3 C762.66 247.23 762.66 258.16 762.67 269.08 C762.67 288.6 762.67 308.12 762.67 327.64 C762.66 344.73 762.66 361.81 762.67 378.89 C762.67 380.59 762.67 380.59 762.67 382.33 C762.67 386.93 762.67 391.53 762.67 396.13 C762.67 439.29 762.67 482.45 762.66 525.61 C762.66 563.94 762.66 602.28 762.66 640.61 C762.67 683.7 762.67 726.78 762.67 769.86 C762.67 774.45 762.67 779.04 762.67 783.64 C762.67 784.77 762.67 785.9 762.66 787.06 C762.66 804.13 762.67 821.21 762.67 838.28 C762.67 857.69 762.67 877.1 762.66 896.51 C762.66 907.38 762.66 918.24 762.67 929.1 C762.67 936.36 762.67 943.62 762.66 950.87 C762.66 955.01 762.66 959.14 762.66 963.27 C762.67 967.04 762.66 970.81 762.66 974.58 C762.66 976.55 762.66 978.53 762.66 980.51 C762.62 1004.1 762.62 1004.1 760.53 1008.26 C760.4 1009.78 760.3 1011.3 760.22 1012.83 C757.91 1039.66 745.84 1065.51 730.53 1087.26 C730.11 1087.86 729.69 1088.46 729.26 1089.08 C715.06 1108.9 696.6 1125.15 675.53 1137.26 C674.96 1137.6 674.38 1137.93 673.79 1138.27 C641.28 1156.92 607.04 1160.42 570.27 1160.4 C567.68 1160.4 565.09 1160.4 562.51 1160.4 C556.9 1160.41 551.28 1160.41 545.67 1160.41 C537.33 1160.41 528.98 1160.41 520.64 1160.42 C504.86 1160.43 489.08 1160.43 473.31 1160.43 C461.12 1160.43 448.93 1160.43 436.75 1160.44 C433.23 1160.44 429.72 1160.44 426.21 1160.44 C424.9 1160.44 424.9 1160.44 423.56 1160.44 C399.01 1160.45 374.46 1160.45 349.91 1160.45 C348.98 1160.45 348.06 1160.45 347.11 1160.45 C342.42 1160.45 337.73 1160.45 333.04 1160.45 C332.11 1160.45 331.18 1160.45 330.22 1160.45 C328.33 1160.45 326.45 1160.45 324.57 1160.45 C295.28 1160.45 266 1160.46 236.71 1160.47 C203.79 1160.49 170.86 1160.49 137.93 1160.49 C134.42 1160.49 130.9 1160.49 127.39 1160.49 C126.09 1160.49 126.09 1160.49 124.77 1160.49 C110.87 1160.49 96.98 1160.5 83.08 1160.51 C69.1 1160.52 55.12 1160.52 41.15 1160.51 C32.85 1160.51 24.56 1160.51 16.27 1160.52 C10.06 1160.53 3.85 1160.52 -2.36 1160.51 C-4.86 1160.51 -7.35 1160.51 -9.85 1160.52 C-28.74 1160.56 -47.7 1160.31 -66.09 1155.58 C-67.14 1155.31 -68.18 1155.05 -69.26 1154.78 C-112.6 1143.56 -152.49 1115.76 -175.59 1077.01 C-187.69 1056.09 -195.62 1034.16 -199.47 1010.26 C-199.64 1009.35 -199.81 1008.44 -199.98 1007.5 C-200.83 1001.46 -200.61 995.34 -200.6 989.26 C-200.6 987.81 -200.6 986.37 -200.61 984.93 C-200.61 980.95 -200.61 976.97 -200.61 973 C-200.61 968.67 -200.61 964.35 -200.62 960.03 C-200.63 951.45 -200.63 942.87 -200.63 934.29 C-200.63 924.02 -200.64 913.75 -200.64 903.48 C-200.66 878.64 -200.66 853.81 -200.67 828.98 C-200.67 817.23 -200.68 805.49 -200.68 793.74 C-200.69 753.53 -200.7 713.31 -200.71 673.1 C-200.71 670.57 -200.71 668.05 -200.71 665.53 C-200.71 662.99 -200.71 660.46 -200.71 657.93 C-200.71 652.86 -200.71 647.78 -200.71 642.7 C-200.71 641.44 -200.71 640.18 -200.71 638.89 C-200.71 598.08 -200.73 557.26 -200.75 516.45 C-200.78 473.3 -200.79 430.16 -200.79 387.01 C-200.79 382.27 -200.79 377.53 -200.79 372.79 C-200.79 371.04 -200.79 371.04 -200.79 369.26 C-200.79 350.49 -200.8 331.73 -200.82 312.96 C-200.83 294.09 -200.84 275.22 -200.83 256.36 C-200.82 245.15 -200.83 233.95 -200.84 222.74 C-200.85 215.25 -200.85 207.76 -200.84 200.27 C-200.84 196 -200.84 191.74 -200.85 187.47 C-200.94 155.19 -200.94 155.19 -197.47 140.26 C-197.25 139.27 -197.04 138.28 -196.82 137.26 C-196.32 135.01 -195.76 132.8 -195.16 130.58 C-194.84 129.4 -194.84 129.4 -194.51 128.2 C-192.41 120.63 -189.65 113.45 -186.47 106.26 C-186.18 105.6 -185.89 104.93 -185.6 104.24 C-178.77 88.47 -169.87 74.16 -158.47 61.26 C-158.03 60.76 -157.59 60.26 -157.14 59.74 C-135.05 34.45 -106.57 16.99 -74.47 7.26 C-73.82 7.06 -73.16 6.85 -72.49 6.64 C-48.76 -0.76 -24.56 -0.15 0 0 Z " fill="#38579F" transform="translate(358.4686279296875,81.7357177734375)"/>
<path d="M0 0 C2.25 -0.04 4.49 -0.1 6.74 -0.18 C25.48 -0.88 25.48 -0.88 30.42 3.04 C32.2 5.89 33.38 8.61 34.54 11.76 C36.18 14.04 37.99 15.94 39.92 18.01 C40.38 18.5 40.85 19 41.32 19.52 C44.84 23.22 48.58 26.35 52.77 29.26 C54.87 31.03 55.87 32.06 56.54 34.76 C55.27 37.32 55.27 37.32 53.17 40.32 C40.24 59.9 35.36 82.04 35.43 105.24 C35.43 106.59 35.43 107.94 35.43 109.29 C35.43 112.94 35.44 116.58 35.44 120.23 C35.45 124.05 35.45 127.87 35.45 131.69 C35.45 138.91 35.46 146.13 35.47 153.35 C35.48 161.57 35.49 169.8 35.49 178.02 C35.5 194.93 35.52 211.84 35.54 228.76 C36.25 228.74 36.95 228.73 37.68 228.72 C40.93 228.68 44.17 228.66 47.42 228.63 C48.53 228.61 49.64 228.6 50.78 228.58 C57.55 228.54 64 228.85 70.54 230.76 C70.87 231.09 71.2 231.42 71.54 231.76 C71.54 230.1 71.54 230.1 71.54 228.41 C71.54 224.28 71.59 220.15 71.64 216.01 C71.66 214.23 71.67 212.45 71.66 210.67 C71.64 192.83 71.64 192.83 76.9 186.23 C79.61 183.8 82.06 182.81 85.54 181.76 C86.53 181.43 87.52 181.1 88.54 180.76 C93.68 180.36 98.3 180.63 102.54 183.76 C110.09 193.02 109.82 200.92 109.89 212.41 C109.91 214.38 109.94 216.35 109.98 218.32 C110.03 221.16 110.05 224.01 110.07 226.86 C110.09 227.73 110.11 228.6 110.14 229.5 C110.11 236.77 107.67 241.63 102.54 246.76 C103.4 247.54 103.4 247.54 104.27 248.34 C114.9 258.47 122.79 270.94 123.75 285.92 C123.98 302.76 118.92 315.04 107.23 327.07 C106.34 327.95 105.46 328.84 104.54 329.76 C103.96 330.35 103.37 330.95 102.77 331.57 C83.96 349.18 58.9 349.78 34.54 350.76 C34.54 405.87 34.54 460.98 34.54 517.76 C38.33 518.16 38.33 518.16 40.08 516.6 C40.56 516.06 41.04 515.53 41.53 514.97 C42.07 514.38 42.61 513.79 43.16 513.18 C43.72 512.55 44.28 511.91 44.86 511.26 C45.44 510.61 46.02 509.96 46.63 509.29 C48.28 507.46 49.91 505.61 51.54 503.76 C52.19 503.02 52.83 502.29 53.49 501.54 C54.53 500.34 55.57 499.14 56.61 497.94 C59.93 494.19 63.37 490.55 66.79 486.89 C69.57 483.9 72.32 480.91 74.98 477.82 C78.98 473.17 83.21 468.74 87.41 464.27 C91.08 460.35 94.68 456.4 98.11 452.27 C101.61 448.56 104.63 447.04 109.66 446.55 C114.97 446.44 118.82 447.07 123.54 449.76 C128.9 455.26 130.86 460.56 131.04 468.09 C129.8 474.74 125.27 479.49 120.73 484.19 C119.65 485.34 118.57 486.49 117.49 487.63 C116.97 488.18 116.46 488.72 115.93 489.28 C114.29 491.02 112.72 492.81 111.17 494.63 C107.13 499.3 102.88 503.77 98.66 508.27 C95.74 511.39 92.83 514.51 90.04 517.76 C86.66 521.69 83.1 525.47 79.54 529.26 C75.34 533.74 71.17 538.24 67.15 542.9 C63.68 546.91 60.12 550.83 56.54 554.76 C55.99 555.37 55.43 555.98 54.86 556.62 C53.01 558.65 51.15 560.67 49.29 562.69 C48.7 563.34 48.11 563.99 47.5 564.67 C43.42 569.08 39.66 572.62 33.54 573.76 C33.87 574.09 34.2 574.42 34.54 574.76 C34.65 577.12 34.69 579.45 34.7 581.81 C34.7 582.93 34.7 582.93 34.71 584.07 C34.72 586.59 34.73 589.11 34.73 591.64 C34.74 593.44 34.75 595.24 34.76 597.04 C34.78 600.92 34.79 604.81 34.8 608.69 C34.82 614.83 34.85 620.97 34.88 627.1 C34.94 640.13 34.99 653.16 35.04 666.19 C35.1 680.25 35.16 694.31 35.22 708.37 C35.25 714.48 35.27 720.59 35.29 726.7 C35.31 730.49 35.32 734.28 35.34 738.08 C35.35 739.84 35.36 741.61 35.36 743.37 C35.37 745.77 35.38 748.17 35.39 750.57 C35.39 751.28 35.39 751.99 35.39 752.71 C35.38 756.36 35.38 756.36 36.54 759.76 C36.91 759.33 37.28 758.9 37.65 758.46 C42 753.44 46.48 748.55 50.99 743.68 C55.56 738.75 60.06 733.76 64.54 728.76 C69.54 723.17 74.58 717.63 79.67 712.13 C87.07 704.17 87.07 704.17 94.05 695.86 C98.71 690.08 103.02 686.9 110.48 685.82 C115.42 685.56 119.47 685.76 123.54 688.76 C128.56 694.38 131.37 699.78 131.08 707.37 C129.88 712.68 127.14 716.53 123.48 720.44 C122.69 721.3 121.9 722.16 121.08 723.04 C120.24 723.94 119.41 724.83 118.54 725.76 C116.83 727.63 115.12 729.5 113.42 731.38 C112.58 732.3 111.74 733.23 110.87 734.18 C108.96 736.29 107.09 738.42 105.23 740.57 C101.37 745.02 97.32 749.31 93.3 753.62 C90.52 756.61 87.77 759.6 85.11 762.69 C81.8 766.53 78.33 770.2 74.86 773.88 C70.29 778.73 65.88 783.65 61.61 788.76 C57.14 794.06 52.43 799.08 47.54 804.01 C46.91 804.65 46.27 805.29 45.62 805.96 C44.72 806.86 44.72 806.86 43.79 807.77 C43.26 808.3 42.73 808.83 42.18 809.37 C38.61 812.39 35.13 813.13 30.54 813.76 C31.19 814.14 31.84 814.52 32.51 814.91 C34.54 816.76 34.54 816.76 35.04 819.27 C35.04 820.27 35.05 821.26 35.05 822.29 C35.07 823.95 35.07 823.95 35.1 825.65 C35.1 826.84 35.1 828.03 35.11 829.26 C35.88 866.35 47.91 897.2 74.79 923.18 C77.08 925.32 79.39 927.38 81.79 929.38 C82.7 930.16 83.61 930.95 84.54 931.76 C84.54 932.42 84.54 933.08 84.54 933.76 C70.64 933.98 56.74 934.18 42.84 934.35 C36.38 934.43 29.93 934.52 23.47 934.63 C17.23 934.73 10.98 934.81 4.74 934.88 C2.37 934.91 0 934.95 -2.37 934.99 C-35.13 935.59 -61.53 926.78 -85.68 903.91 C-103.29 886.81 -114.21 863.39 -114.59 838.63 C-114.61 836.68 -114.61 834.73 -114.61 832.78 C-114.62 831.18 -114.62 831.18 -114.63 829.54 C-114.64 827.23 -114.65 824.91 -114.66 822.6 C-114.67 818.93 -114.69 815.27 -114.71 811.6 C-114.77 801.18 -114.82 790.76 -114.86 780.34 C-114.88 773.96 -114.91 767.58 -114.96 761.19 C-114.97 758.77 -114.98 756.34 -114.98 753.91 C-114.99 750.52 -115.01 747.12 -115.04 743.73 C-115.04 742.73 -115.03 741.73 -115.03 740.71 C-115.12 733.25 -116.44 727.84 -120.58 721.51 C-123.74 718.48 -126.54 717.1 -130.57 715.52 C-132.46 714.76 -132.46 714.76 -133.46 713.76 C-133.54 711.16 -133.57 708.59 -133.55 706 C-133.55 705.23 -133.55 704.45 -133.55 703.65 C-133.54 701.17 -133.53 698.68 -133.52 696.19 C-133.51 694.51 -133.51 692.83 -133.5 691.15 C-133.49 687.02 -133.48 682.89 -133.46 678.76 C-132.65 678.46 -132.65 678.46 -131.82 678.16 C-131.11 677.9 -130.4 677.64 -129.66 677.37 C-128.61 676.99 -128.61 676.99 -127.53 676.59 C-122.32 674.49 -118.83 671.87 -116.46 666.76 C-115.15 661.98 -115.32 657.21 -115.33 652.3 C-115.32 651.34 -115.32 650.37 -115.32 649.38 C-115.31 646.14 -115.32 642.9 -115.32 639.66 C-115.32 637.32 -115.31 634.98 -115.31 632.64 C-115.3 626.87 -115.3 621.1 -115.3 615.33 C-115.3 608.42 -115.29 601.52 -115.28 594.61 C-115.27 582.63 -115.26 570.66 -115.26 558.69 C-115.25 539.67 -115.23 520.66 -115.21 501.64 C-115.2 494.32 -115.19 487.01 -115.18 479.69 C-115.18 478.88 -115.18 478.06 -115.18 477.23 C-115.16 457.87 -115.14 438.51 -115.12 419.15 C-115.12 418.31 -115.12 417.46 -115.12 416.59 C-115.1 396.83 -115.08 377.08 -115.07 357.33 C-115.07 356.06 -115.07 356.06 -115.07 354.76 C-115.06 347.91 -115.06 341.07 -115.05 334.23 C-115.04 306 -115.01 277.77 -114.97 249.54 C-114.96 245.55 -114.96 241.56 -114.95 237.57 C-114.95 236.78 -114.95 236 -114.95 235.19 C-114.93 222.57 -114.93 209.95 -114.93 197.33 C-114.93 184.63 -114.91 171.94 -114.89 159.24 C-114.88 152.37 -114.87 145.5 -114.88 138.62 C-114.88 132.32 -114.87 126.02 -114.85 119.73 C-114.85 117.45 -114.85 115.18 -114.86 112.91 C-114.93 82.38 -108.14 55.35 -86.46 32.76 C-85.63 31.89 -84.81 31.02 -83.96 30.13 C-83.13 29.35 -82.31 28.56 -81.46 27.76 C-80.49 26.83 -80.49 26.83 -79.51 25.89 C-74.21 20.98 -68.79 17.2 -62.46 13.76 C-61.12 13 -61.12 13 -59.75 12.23 C-53.99 9.14 -48.2 6.87 -41.96 5.01 C-40.96 4.71 -40.96 4.71 -39.95 4.4 C-26.79 0.69 -13.58 0.17 0 0 Z " fill="#D0DBF6" transform="translate(385.455810546875,194.244873046875)"/>
<path d="M0 0 C3.75 0.02 7.5 0.02 11.25 0.03 C14.86 0.03 18.47 0.04 22.08 0.05 C23.8 0.06 25.53 0.06 27.25 0.07 C29.64 0.07 32.02 0.09 34.41 0.1 C35.47 0.1 35.47 0.1 36.56 0.11 C41.42 0.15 41.42 0.15 42.53 1.26 C42.63 3.56 42.65 5.87 42.64 8.17 C42.65 8.89 42.65 9.61 42.65 10.36 C42.64 12.76 42.64 15.15 42.63 17.55 C42.63 19.21 42.63 20.86 42.62 22.52 C42.62 26.89 42.61 31.27 42.6 35.64 C42.59 40.09 42.59 44.55 42.58 49.01 C42.57 57.76 42.55 66.51 42.53 75.26 C41.58 75.29 40.64 75.32 39.66 75.34 C36.1 75.44 32.54 75.54 28.98 75.65 C27.45 75.69 25.92 75.73 24.38 75.78 C-15.69 76.88 -51.85 86.87 -81.47 115.26 C-82.31 116.07 -83.16 116.87 -84.03 117.7 C-84.84 118.55 -85.64 119.39 -86.47 120.26 C-87.11 120.92 -87.75 121.58 -88.41 122.26 C-105.73 140.63 -117.2 164.69 -122.47 189.26 C-122.65 190.05 -122.83 190.83 -123.02 191.63 C-125.21 202.48 -124.75 213.52 -124.73 224.53 C-124.73 226.92 -124.74 229.3 -124.74 231.68 C-124.75 236.85 -124.75 242.01 -124.75 247.18 C-124.74 254.87 -124.75 262.55 -124.76 270.23 C-124.77 284.76 -124.77 299.28 -124.77 313.8 C-124.77 325.01 -124.77 336.22 -124.78 347.43 C-124.78 349.04 -124.78 350.65 -124.78 352.26 C-124.78 354.69 -124.78 357.12 -124.78 359.54 C-124.79 382.11 -124.79 404.68 -124.79 427.24 C-124.79 428.52 -124.79 428.52 -124.79 429.82 C-124.79 434.13 -124.79 438.44 -124.79 442.75 C-124.79 443.6 -124.78 444.46 -124.78 445.34 C-124.78 447.07 -124.78 448.8 -124.78 450.53 C-124.78 477.48 -124.79 504.43 -124.8 531.38 C-124.83 561.66 -124.84 591.94 -124.83 622.22 C-124.83 625.45 -124.83 628.68 -124.83 631.91 C-124.83 633.1 -124.83 633.1 -124.83 634.31 C-124.83 646.32 -124.84 658.32 -124.85 670.32 C-124.86 683.97 -124.86 697.61 -124.85 711.25 C-124.84 718.89 -124.84 726.53 -124.86 734.16 C-124.87 739.86 -124.86 745.55 -124.85 751.25 C-124.84 753.56 -124.85 755.87 -124.85 758.18 C-124.86 761.31 -124.86 764.43 -124.84 767.56 C-124.85 768.47 -124.86 769.37 -124.87 770.31 C-124.82 776.02 -124.12 780.56 -119.93 784.84 C-119.38 785.21 -118.84 785.57 -118.28 785.95 C-117.75 786.33 -117.22 786.7 -116.68 787.09 C-113.43 788.82 -109.91 789.97 -106.47 791.26 C-106.14 803.47 -105.81 815.68 -105.47 828.26 C-108.77 829.25 -112.07 830.24 -115.47 831.26 C-120.34 834.13 -122.62 838.04 -124.47 843.26 C-125.02 847.08 -125.02 850.85 -124.99 854.7 C-124.99 855.82 -125 856.95 -125.01 858.1 C-125.03 861.8 -125.01 865.49 -125 869.19 C-125 871.78 -125.01 874.37 -125.01 876.96 C-125.02 882.38 -125.01 887.81 -124.99 893.24 C-124.97 899.46 -124.98 905.69 -125 911.91 C-125.02 917.95 -125.02 923.98 -125 930.02 C-125 932.56 -125 935.1 -125.01 937.65 C-125.06 952.38 -124.31 966.01 -120.47 980.26 C-120.03 981.89 -120.03 981.89 -119.59 983.55 C-118.89 986.03 -118.11 988.45 -117.28 990.89 C-116.84 992.19 -116.84 992.19 -116.39 993.51 C-111.97 1006.06 -105.58 1017.72 -97.47 1028.26 C-96.87 1029.07 -96.26 1029.87 -95.64 1030.7 C-74.44 1058.23 -41.82 1076.93 -7.59 1082.58 C6.2 1084.22 19.93 1084.46 33.8 1084.58 C35.83 1084.6 37.85 1084.62 39.87 1084.64 C45.14 1084.7 50.41 1084.75 55.68 1084.8 C61.07 1084.85 66.47 1084.9 71.87 1084.96 C82.42 1085.06 92.98 1085.17 103.53 1085.26 C103.53 1085.92 103.53 1086.58 103.53 1087.26 C104.19 1087.59 104.85 1087.92 105.53 1088.26 C105.21 1088.94 104.88 1089.62 104.54 1090.32 C96.53 1107.39 93.99 1123.91 99.53 1142.26 C101.21 1146.61 103.13 1150.84 105.11 1155.06 C106.53 1158.26 106.53 1158.26 106.53 1160.26 C88.77 1160.31 71.01 1160.35 53.25 1160.37 C45 1160.38 36.75 1160.39 28.5 1160.42 C21.3 1160.44 14.1 1160.45 6.9 1160.45 C3.1 1160.46 -0.7 1160.46 -4.51 1160.48 C-46.46 1160.63 -46.46 1160.63 -66.09 1155.58 C-67.14 1155.31 -68.18 1155.05 -69.26 1154.78 C-112.6 1143.56 -152.49 1115.76 -175.59 1077.01 C-187.69 1056.09 -195.62 1034.16 -199.47 1010.26 C-199.64 1009.35 -199.81 1008.44 -199.98 1007.5 C-200.83 1001.46 -200.61 995.34 -200.6 989.26 C-200.6 987.81 -200.6 986.37 -200.61 984.93 C-200.61 980.95 -200.61 976.97 -200.61 973 C-200.61 968.67 -200.61 964.35 -200.62 960.03 C-200.63 951.45 -200.63 942.87 -200.63 934.29 C-200.63 924.02 -200.64 913.75 -200.64 903.48 C-200.66 878.64 -200.66 853.81 -200.67 828.98 C-200.67 817.23 -200.68 805.49 -200.68 793.74 C-200.69 753.53 -200.7 713.31 -200.71 673.1 C-200.71 670.57 -200.71 668.05 -200.71 665.53 C-200.71 662.99 -200.71 660.46 -200.71 657.93 C-200.71 652.86 -200.71 647.78 -200.71 642.7 C-200.71 641.44 -200.71 640.18 -200.71 638.89 C-200.71 598.08 -200.73 557.26 -200.75 516.45 C-200.78 473.3 -200.79 430.16 -200.79 387.01 C-200.79 382.27 -200.79 377.53 -200.79 372.79 C-200.79 371.04 -200.79 371.04 -200.79 369.26 C-200.79 350.49 -200.8 331.73 -200.82 312.96 C-200.83 294.09 -200.84 275.22 -200.83 256.36 C-200.82 245.15 -200.83 233.95 -200.84 222.74 C-200.85 215.25 -200.85 207.76 -200.84 200.27 C-200.84 196 -200.84 191.74 -200.85 187.47 C-200.94 155.19 -200.94 155.19 -197.47 140.26 C-197.25 139.27 -197.04 138.28 -196.82 137.26 C-196.32 135.01 -195.76 132.8 -195.16 130.58 C-194.84 129.4 -194.84 129.4 -194.51 128.2 C-192.41 120.63 -189.65 113.45 -186.47 106.26 C-186.18 105.6 -185.89 104.93 -185.6 104.24 C-178.77 88.47 -169.87 74.16 -158.47 61.26 C-158.03 60.76 -157.59 60.26 -157.14 59.74 C-135.05 34.45 -106.57 16.99 -74.47 7.26 C-73.82 7.06 -73.16 6.85 -72.49 6.64 C-48.76 -0.76 -24.56 -0.15 0 0 Z " fill="#172C79" transform="translate(358.4686279296875,81.7357177734375)"/>
<path d="M0 0 C1.22 -0 2.44 -0.01 3.7 -0.01 C7.08 -0.02 10.46 -0.02 13.85 -0.02 C17.5 -0.02 21.15 -0.03 24.8 -0.04 C32.78 -0.05 40.76 -0.06 48.74 -0.06 C53.72 -0.06 58.71 -0.07 63.69 -0.07 C77.51 -0.08 91.33 -0.09 105.14 -0.1 C106.03 -0.1 106.91 -0.1 107.82 -0.1 C109.15 -0.1 109.15 -0.1 110.5 -0.1 C112.3 -0.1 114.09 -0.1 115.89 -0.1 C116.78 -0.1 117.67 -0.1 118.59 -0.1 C133 -0.1 147.42 -0.12 161.84 -0.15 C176.66 -0.17 191.47 -0.18 206.29 -0.18 C214.6 -0.18 222.91 -0.19 231.23 -0.21 C238.31 -0.22 245.39 -0.23 252.47 -0.22 C256.08 -0.22 259.69 -0.22 263.3 -0.23 C267.22 -0.25 271.14 -0.24 275.06 -0.23 C276.19 -0.24 277.32 -0.24 278.47 -0.25 C294.66 -0.15 308.56 4.26 320.23 15.64 C335.5 31.22 339.13 48.22 339.14 69.47 C339.15 70.73 339.15 72 339.15 73.3 C339.16 75.97 339.16 78.64 339.16 81.31 C339.16 84.7 339.18 88.08 339.19 91.46 C339.21 94.73 339.21 98.01 339.21 101.28 C339.21 102.48 339.22 103.67 339.23 104.9 C339.18 124.59 334.87 139.21 320.98 153.45 C309.59 164.4 298.53 168.52 282.89 169.89 C276.61 170.54 271.84 171.97 266.98 176.14 C263.88 180.08 262.56 184.39 260.98 189.14 C249.1 189.14 237.22 189.14 224.98 189.14 C223 185.18 221.02 181.22 218.98 177.14 C215.74 172.74 215.74 172.74 210.98 171.14 C208.01 170.95 205.15 170.86 202.19 170.88 C201.3 170.87 200.42 170.87 199.5 170.86 C196.54 170.85 193.57 170.85 190.6 170.85 C188.48 170.85 186.35 170.84 184.22 170.83 C179.64 170.82 175.06 170.81 170.47 170.8 C163.22 170.8 155.96 170.78 148.71 170.75 C133.3 170.7 117.89 170.67 102.48 170.64 C85.87 170.61 69.26 170.57 52.65 170.52 C45.44 170.49 38.24 170.48 31.04 170.47 C26.54 170.47 22.05 170.45 17.55 170.44 C15.48 170.43 13.4 170.43 11.33 170.43 C-12.74 170.44 -31.25 167.47 -49.4 150.2 C-59.39 139.81 -64.07 126.08 -64.2 111.75 C-64.21 110.5 -64.23 109.25 -64.24 107.96 C-64.25 106.61 -64.25 105.25 -64.26 103.9 C-64.27 103.21 -64.27 102.51 -64.27 101.8 C-64.29 98.13 -64.31 94.46 -64.32 90.8 C-64.33 87.05 -64.36 83.31 -64.4 79.57 C-64.43 76.65 -64.44 73.73 -64.44 70.82 C-64.45 69.44 -64.46 68.06 -64.48 66.69 C-64.71 48.32 -60.34 30.98 -47.39 17.4 C-40.61 10.94 -33.63 5.72 -24.59 3.02 C-23.49 2.68 -22.4 2.35 -21.28 2.01 C-14.13 0.1 -7.36 -0.01 0 0 Z " fill="#F7E2A0" transform="translate(502.02320861816406,36.85955810546875)"/>
<path d="M0 0 C1.05 -0.01 2.1 -0.02 3.18 -0.02 C6.64 -0.05 10.1 -0.07 13.56 -0.08 C14.74 -0.09 15.92 -0.09 17.14 -0.1 C23.39 -0.12 29.64 -0.14 35.88 -0.16 C41.06 -0.17 46.24 -0.2 51.41 -0.24 C57.66 -0.29 63.91 -0.31 70.17 -0.32 C72.55 -0.33 74.93 -0.34 77.32 -0.37 C80.64 -0.4 83.97 -0.4 87.29 -0.39 C88.78 -0.42 88.78 -0.42 90.29 -0.44 C92.78 -0.42 95.03 -0.37 97.45 0.19 C99.59 2.73 99.59 2.73 100.45 5.19 C99.72 5.72 98.99 6.24 98.23 6.79 C95.17 9.44 93.08 12.29 90.95 15.69 C90.56 16.31 90.17 16.93 89.77 17.56 C86.32 23.17 83.54 28.93 81.45 35.19 C81.21 35.89 80.96 36.58 80.71 37.29 C77.92 46.07 78 54.71 78.02 63.8 C78.01 65.5 78.01 67.2 78 68.89 C77.99 72.44 78 75.98 78.01 79.52 C78.02 84.02 78 88.52 77.97 93.02 C77.95 96.52 77.95 100.03 77.96 103.53 C77.96 105.18 77.95 106.84 77.94 108.5 C77.8 129.78 83.87 146.97 97.32 163.55 C99.45 166.19 99.45 166.19 101.45 169.19 C86.55 169.29 71.65 169.36 56.75 169.4 C49.83 169.42 42.91 169.45 35.99 169.49 C29.31 169.54 22.62 169.56 15.94 169.57 C13.4 169.58 10.85 169.59 8.31 169.62 C-14.25 169.8 -31.01 166.99 -47.61 150.69 C-57.69 140.03 -62.59 126.45 -62.72 111.8 C-62.74 110.55 -62.75 109.3 -62.76 108.01 C-62.77 106.66 -62.78 105.3 -62.79 103.95 C-62.79 103.26 -62.79 102.57 -62.8 101.85 C-62.82 98.19 -62.83 94.52 -62.84 90.85 C-62.85 87.11 -62.89 83.36 -62.93 79.62 C-62.95 76.7 -62.96 73.79 -62.97 70.87 C-62.97 69.49 -62.98 68.12 -63 66.74 C-63.24 48.37 -58.86 31.03 -45.92 17.45 C-39.13 10.99 -32.15 5.77 -23.11 3.07 C-22.02 2.74 -20.93 2.4 -19.8 2.06 C-13.14 0.29 -6.85 0.03 0 0 Z " fill="#F2CA59" transform="translate(500.547607421875,36.80712890625)"/>
<path d="M0 0 C5.23 6.32 7.13 11.51 7.28 19.66 C7.31 20.78 7.31 20.78 7.34 21.92 C7.42 25.11 7.48 28.3 7.55 31.49 C7.6 33.82 7.66 36.14 7.72 38.47 C7.73 39.2 7.75 39.92 7.76 40.67 C7.8 44.46 7.8 44.46 9 48 C9.99 47.34 10.98 46.68 12 46 C32.14 39.97 56.01 43.41 74.59 52.7 C75.78 53.35 75.78 53.35 77 54 C77.84 54.43 78.67 54.86 79.53 55.3 C91.22 61.72 98.81 71.37 105 83 C105.68 84.24 105.68 84.24 106.38 85.5 C111.11 95.81 111 111.5 107.44 122.19 C106.31 124.64 106.31 124.64 105 127 C104.53 127.89 104.05 128.79 103.56 129.71 C93.05 147.77 75.54 158.35 55.76 163.59 C31.98 169.01 6.97 165.12 -14 153 C-17.64 150.6 -20.81 147.96 -24 145 C-24.92 144.22 -25.85 143.45 -26.8 142.65 C-36.12 134.3 -42.18 122.47 -43.27 109.86 C-43.68 95.26 -39.67 81.4 -29.62 70.39 C-27.45 68.21 -25.26 66.08 -23 64 C-24.14 61.52 -24.81 60.15 -27 58.44 C-32.88 51.27 -31.33 38.61 -31.31 29.88 C-31.33 28.57 -31.34 27.26 -31.36 25.92 C-31.37 17.41 -30.93 9.7 -25.81 2.62 C-18.57 -4.13 -8.56 -5.23 0 0 Z " fill="#FAA2AD" transform="translate(813,376)"/>
<path d="M0 0 C4.05 2.98 6.49 7.83 8.71 12.26 C8.99 18.14 9.02 24.02 9.06 29.91 C9.07 31.88 9.1 33.85 9.14 35.82 C9.19 38.67 9.22 41.51 9.23 44.36 C9.25 45.23 9.28 46.1 9.3 47 C9.27 54.27 6.83 59.13 1.71 64.26 C2.28 64.78 2.84 65.3 3.43 65.84 C14.06 75.97 21.95 88.44 22.91 103.42 C23.14 120.27 18.08 132.55 6.39 144.57 C5.51 145.46 4.62 146.34 3.71 147.26 C3.12 147.86 2.53 148.45 1.93 149.07 C-15.08 165 -38.3 167.88 -60.54 167.6 C-79.51 166.96 -96.71 159.22 -111.29 147.26 C-112.08 146.62 -112.88 145.97 -113.69 145.31 C-122.27 137.61 -129.34 124.92 -130.29 113.26 C-130.37 112.35 -130.45 111.44 -130.54 110.51 C-131.17 96.18 -125.31 82.8 -116.04 72.07 C-102.14 57.47 -82.94 47.17 -62.48 46.11 C-59.33 46.09 -56.19 46.07 -53.04 46.07 C-51.42 46.05 -51.42 46.05 -49.77 46.03 C-43.1 46.02 -36.73 46.41 -30.29 48.26 C-29.96 48.59 -29.63 48.92 -29.29 49.26 C-29.29 47.6 -29.29 47.6 -29.3 45.91 C-29.29 41.78 -29.25 37.65 -29.2 33.52 C-29.18 31.74 -29.17 29.95 -29.17 28.17 C-29.19 10.34 -29.19 10.34 -23.93 3.73 C-21.23 1.3 -18.78 0.31 -15.29 -0.74 C-10.07 -2.48 -5.05 -2.35 0 0 Z " fill="#FAA2AD" transform="translate(486.29296875,376.7421875)"/>
<path d="M0 0 C6.18 0.57 11.6 1.93 17.44 4 C18.3 4.31 19.17 4.61 20.07 4.93 C54.17 17.4 84.54 43.05 106 72 C106.42 72.56 106.85 73.13 107.28 73.71 C124.14 96.16 137.76 122.22 143 150 C141.48 149.86 139.96 149.71 138.44 149.56 C137.59 149.48 136.74 149.4 135.87 149.32 C133.84 149.09 131.81 148.81 129.79 148.49 C125.97 148 122.29 147.85 118.44 147.83 C117.71 147.82 116.99 147.81 116.25 147.81 C114.69 147.79 113.14 147.78 111.58 147.77 C109.11 147.75 106.63 147.73 104.16 147.71 C97.13 147.63 90.1 147.57 83.07 147.52 C78.75 147.49 74.44 147.45 70.13 147.4 C68.5 147.39 66.87 147.37 65.24 147.37 C48.18 147.27 31.88 146.47 18.81 134.03 C7.85 121.77 6.56 108.09 6.62 92.33 C6.63 89.76 6.62 87.19 6.6 84.63 C6.56 77.33 6.56 70.04 6.56 62.75 C6.56 58.26 6.54 53.77 6.51 49.28 C6.5 46.78 6.52 44.29 6.53 41.79 C6.5 29.89 4.72 18.99 0.88 7.7 C-0.01 4.96 -0.17 2.86 0 0 Z " fill="#CFDAF6" transform="translate(860,204)"/>
<path d="M0 0 C1.19 -0 2.38 -0 3.61 -0.01 C6.91 -0.01 10.21 -0.01 13.51 -0.01 C17.07 -0.01 20.64 -0.02 24.2 -0.02 C31.18 -0.03 38.15 -0.03 45.13 -0.03 C50.8 -0.03 56.47 -0.04 62.14 -0.04 C78.22 -0.05 94.31 -0.05 110.39 -0.05 C111.69 -0.05 111.69 -0.05 113.02 -0.05 C113.88 -0.05 114.75 -0.05 115.65 -0.05 C129.71 -0.05 143.78 -0.06 157.84 -0.07 C172.29 -0.09 186.73 -0.1 201.18 -0.1 C209.29 -0.09 217.4 -0.1 225.51 -0.11 C232.41 -0.12 239.31 -0.12 246.22 -0.11 C249.74 -0.11 253.26 -0.11 256.78 -0.12 C260.6 -0.13 264.42 -0.12 268.24 -0.11 C269.35 -0.12 270.46 -0.12 271.6 -0.13 C279.2 -0.1 287.03 -0.04 292.92 5.47 C296.8 10.35 298.63 16.04 298.43 22.26 C297.57 27.87 294.59 31.61 290.25 35.13 C284.49 38.96 278.87 38.56 272.2 38.53 C270.98 38.53 269.76 38.54 268.5 38.55 C265.11 38.56 261.72 38.56 258.33 38.56 C254.68 38.55 251.02 38.57 247.36 38.58 C240.2 38.6 233.04 38.6 225.88 38.6 C220.06 38.6 214.23 38.61 208.41 38.61 C206.73 38.62 205.06 38.62 203.38 38.62 C202.13 38.62 202.13 38.62 200.85 38.62 C185.06 38.64 169.26 38.64 153.47 38.63 C139.03 38.63 124.59 38.65 110.15 38.68 C95.32 38.72 80.49 38.73 65.65 38.73 C57.33 38.72 49 38.73 40.68 38.75 C33.59 38.78 26.5 38.78 19.41 38.76 C15.8 38.75 12.19 38.75 8.57 38.77 C4.65 38.79 0.72 38.78 -3.2 38.76 C-4.9 38.77 -4.9 38.77 -6.64 38.79 C-13.97 38.71 -19.65 37.34 -25.75 33.13 C-30.19 28.44 -31.23 23.1 -31.16 16.84 C-30.34 11.4 -27.23 7.14 -23.01 3.72 C-15.94 -0.66 -8 -0.01 0 0 Z " fill="#000002" transform="translate(615.7531433105469,871.8662872314453)"/>
<path d="M0 0 C1.22 -0 2.43 -0.01 3.69 -0.01 C7.05 -0.02 10.42 -0.03 13.78 -0.02 C17.41 -0.02 21.05 -0.03 24.68 -0.04 C31.79 -0.06 38.91 -0.07 46.02 -0.07 C51.8 -0.07 57.59 -0.07 63.37 -0.08 C79.77 -0.1 96.18 -0.1 112.58 -0.1 C113.91 -0.1 113.91 -0.1 115.26 -0.1 C116.59 -0.1 116.59 -0.1 117.94 -0.1 C132.28 -0.1 146.63 -0.12 160.97 -0.15 C175.7 -0.18 190.44 -0.19 205.17 -0.19 C213.44 -0.19 221.71 -0.2 229.98 -0.22 C237.02 -0.23 244.06 -0.24 251.1 -0.23 C254.69 -0.22 258.28 -0.22 261.87 -0.24 C265.77 -0.25 269.66 -0.24 273.56 -0.23 C274.69 -0.24 275.81 -0.25 276.98 -0.26 C283.69 -0.2 289.14 0.66 294.91 4.27 C296.84 6.52 296.84 6.52 297.91 8.83 C298.28 9.59 298.65 10.36 299.03 11.15 C301.02 15.97 301.85 20.16 300.29 25.29 C297.87 30.85 294.31 34.52 288.91 37.27 C284.75 38.11 280.69 38.08 276.46 38.03 C275.22 38.04 273.98 38.05 272.7 38.06 C269.27 38.08 265.84 38.07 262.41 38.05 C258.7 38.04 255 38.06 251.29 38.08 C244.03 38.1 236.78 38.1 229.53 38.08 C223.63 38.07 217.73 38.06 211.83 38.07 C210.57 38.07 210.57 38.07 209.29 38.07 C207.58 38.08 205.87 38.08 204.17 38.08 C188.17 38.1 172.18 38.08 156.18 38.04 C142.46 38.02 128.75 38.02 115.03 38.05 C99.09 38.08 83.15 38.09 67.21 38.08 C65.51 38.07 63.81 38.07 62.11 38.07 C61.27 38.07 60.44 38.07 59.58 38.07 C53.69 38.06 47.8 38.07 41.91 38.09 C34.73 38.1 27.55 38.1 20.38 38.07 C16.71 38.05 13.05 38.04 9.39 38.06 C5.42 38.08 1.45 38.06 -2.52 38.03 C-4.25 38.05 -4.25 38.05 -6.01 38.07 C-13.51 37.96 -18.51 36.41 -24.09 31.27 C-28.51 25.98 -28.66 20.92 -28.09 14.27 C-26.42 9.42 -23.36 5.19 -19.09 2.27 C-12.75 -0.09 -6.71 -0.02 0 0 Z " fill="#000002" transform="translate(613.0944519042969,739.7325744628906)"/>
<path d="M0 0 C1.58 -0.01 1.58 -0.01 3.19 -0.01 C4.93 -0.01 4.93 -0.01 6.72 -0.01 C8.56 -0.02 8.56 -0.02 10.44 -0.02 C13.87 -0.03 17.29 -0.04 20.72 -0.04 C24.41 -0.04 28.1 -0.05 31.79 -0.06 C40.71 -0.08 49.62 -0.09 58.54 -0.1 C62.74 -0.11 66.94 -0.11 71.13 -0.12 C85.08 -0.13 99.04 -0.15 112.99 -0.16 C116.61 -0.16 120.23 -0.16 123.85 -0.16 C124.75 -0.16 125.65 -0.16 126.58 -0.16 C141.16 -0.17 155.75 -0.2 170.33 -0.23 C185.3 -0.26 200.26 -0.28 215.23 -0.28 C223.64 -0.28 232.04 -0.29 240.45 -0.32 C247.61 -0.34 254.77 -0.35 261.92 -0.34 C265.58 -0.33 269.23 -0.34 272.88 -0.36 C276.84 -0.38 280.8 -0.37 284.76 -0.35 C285.92 -0.36 287.07 -0.38 288.26 -0.39 C294.75 -0.33 298.78 0.24 304.06 4.13 C305.8 6.17 305.8 6.17 306.93 8.2 C307.32 8.87 307.71 9.54 308.11 10.23 C310.46 14.97 310.92 19.36 309.34 24.45 C306.75 30.78 303.42 34.44 297.06 37.13 C294.63 37.39 294.63 37.39 291.87 37.39 C290.29 37.4 290.29 37.4 288.68 37.42 C287.52 37.41 286.36 37.41 285.17 37.41 C283.33 37.42 283.33 37.42 281.44 37.42 C278.03 37.44 274.61 37.44 271.19 37.44 C267.51 37.44 263.82 37.45 260.14 37.47 C252.08 37.49 244.02 37.5 235.97 37.5 C230.93 37.5 225.9 37.51 220.87 37.52 C206.94 37.54 193 37.55 179.07 37.56 C177.73 37.56 177.73 37.56 176.36 37.56 C174.56 37.56 172.75 37.56 170.94 37.56 C170.04 37.56 169.15 37.56 168.22 37.56 C166.87 37.56 166.87 37.56 165.5 37.56 C150.94 37.56 136.39 37.59 121.83 37.63 C106.88 37.67 91.94 37.69 76.99 37.69 C68.6 37.69 60.21 37.7 51.82 37.72 C44.67 37.75 37.52 37.76 30.38 37.74 C26.73 37.73 23.09 37.73 19.44 37.76 C15.49 37.78 11.53 37.77 7.58 37.75 C5.86 37.77 5.86 37.77 4.1 37.79 C-3 37.71 -8.25 36.56 -13.94 32.13 C-17.85 27.8 -19.33 23.21 -19.21 17.39 C-18.61 12.33 -16.94 7.8 -12.97 4.49 C-11 3.25 -9.04 2.15 -6.94 1.13 C-4.45 -0.11 -2.79 0.01 0 0 Z " fill="#000002" transform="translate(603.9429883956909,976.8657789230347)"/>
<path d="M0 0 C1.23 -0 2.45 -0.01 3.71 -0.01 C7.11 -0.02 10.5 -0.02 13.89 -0.02 C17.56 -0.01 21.22 -0.02 24.88 -0.03 C32.05 -0.04 39.23 -0.04 46.4 -0.04 C52.23 -0.04 58.06 -0.04 63.89 -0.05 C64.72 -0.05 65.55 -0.05 66.4 -0.05 C68.09 -0.05 69.77 -0.05 71.46 -0.05 C87.27 -0.06 103.07 -0.06 118.88 -0.05 C133.34 -0.05 147.8 -0.06 162.26 -0.08 C177.11 -0.1 191.96 -0.11 206.81 -0.1 C215.15 -0.1 223.48 -0.1 231.82 -0.12 C238.92 -0.13 246.01 -0.13 253.11 -0.12 C256.73 -0.11 260.35 -0.11 263.97 -0.12 C267.9 -0.14 271.82 -0.13 275.75 -0.11 C276.89 -0.12 278.03 -0.13 279.21 -0.14 C285.23 -0.09 289.65 0.29 294.94 3.26 C296.9 5.38 296.9 5.38 298.31 7.7 C298.79 8.46 299.28 9.22 299.77 10.01 C302.27 14.84 302.88 19.98 301.36 25.28 C298.85 31.25 294.74 34.56 288.94 37.26 C284.76 38.08 280.7 38.07 276.45 38.02 C275.22 38.02 273.98 38.03 272.71 38.04 C269.3 38.06 265.9 38.05 262.49 38.03 C258.81 38.01 255.13 38.03 251.45 38.05 C244.25 38.07 237.04 38.06 229.84 38.04 C223.98 38.02 218.13 38.02 212.27 38.02 C211.44 38.03 210.61 38.03 209.75 38.03 C208.05 38.03 206.36 38.03 204.66 38.03 C188.78 38.04 172.89 38.02 157.01 37.98 C143.39 37.95 129.77 37.95 116.15 37.97 C100.32 37.99 84.49 38 68.67 37.98 C66.98 37.97 65.29 37.97 63.6 37.97 C62.77 37.97 61.94 37.97 61.08 37.97 C55.23 37.96 49.39 37.96 43.54 37.97 C36.41 37.98 29.29 37.98 22.16 37.95 C18.52 37.93 14.89 37.92 11.26 37.94 C7.31 37.95 3.37 37.93 -0.58 37.9 C-1.72 37.91 -2.86 37.92 -4.04 37.93 C-11.13 37.84 -16.38 36.67 -22.06 32.26 C-26.05 27.85 -27.38 23.3 -27.27 17.38 C-26.7 11.56 -23.8 7.55 -19.86 3.52 C-13.9 -0.67 -6.95 -0.02 0 0 Z " fill="#000002" transform="translate(612.0635833740234,635.7393035888672)"/>
<path d="M0 0 C0.83 0.07 1.67 0.13 2.53 0.2 C6.58 1.08 9.19 2.72 11.86 5.88 C15.53 11.79 17.52 16.76 16.06 23.75 C14.26 27.97 12.13 31.1 9 34.44 C8.21 35.29 7.41 36.15 6.6 37.04 C5.76 37.93 4.92 38.83 4.06 39.75 C2.35 41.62 0.64 43.5 -1.06 45.38 C-1.9 46.3 -2.75 47.22 -3.61 48.18 C-5.52 50.28 -7.39 52.41 -9.25 54.56 C-13.12 59.02 -17.16 63.31 -21.18 67.62 C-23.96 70.6 -26.72 73.6 -29.38 76.69 C-32.68 80.52 -36.15 84.19 -39.62 87.88 C-44.19 92.72 -48.6 97.65 -52.88 102.75 C-57.34 108.06 -62.05 113.08 -66.94 118 C-67.57 118.64 -68.21 119.29 -68.86 119.95 C-69.47 120.55 -70.07 121.15 -70.69 121.77 C-71.22 122.29 -71.75 122.82 -72.3 123.37 C-76.37 126.8 -80.05 127.26 -85.23 127.11 C-97.76 125.45 -106.18 114.1 -113.85 105.05 C-115.63 103.09 -117.45 101.24 -119.34 99.39 C-119.96 98.78 -120.58 98.17 -121.22 97.55 C-122.46 96.34 -123.71 95.13 -124.96 93.94 C-130.29 88.74 -134.48 83.28 -135.25 75.62 C-134.78 69.84 -133.18 65.22 -129.24 60.88 C-124.99 57.29 -121.12 55.99 -115.62 55.46 C-105.88 56.5 -100.95 62.12 -94.44 68.94 C-93.52 69.88 -92.6 70.82 -91.66 71.79 C-89.4 74.1 -87.17 76.42 -84.94 78.75 C-80.81 76.87 -78.23 74.09 -75.25 70.75 C-74.72 70.17 -74.19 69.58 -73.64 68.98 C-72.07 67.24 -70.5 65.5 -68.94 63.75 C-68.15 62.87 -67.35 61.99 -66.54 61.09 C-65.1 59.49 -63.66 57.89 -62.22 56.29 C-59.6 53.38 -56.96 50.5 -54.31 47.62 C-51.35 44.41 -48.42 41.18 -45.56 37.88 C-42.28 34.08 -38.86 30.42 -35.44 26.75 C-27.71 18.5 -27.71 18.5 -20.43 9.86 C-15.03 3.15 -8.85 -0.82 0 0 Z " fill="#000002" transform="translate(499.9375,880.25)"/>
<path d="M0 0 C5.36 5.51 7.31 10.81 7.5 18.34 C6.26 24.98 1.72 29.74 -2.81 34.44 C-3.9 35.58 -4.98 36.73 -6.06 37.88 C-6.57 38.42 -7.09 38.96 -7.62 39.52 C-9.25 41.27 -10.82 43.06 -12.38 44.88 C-16.41 49.55 -20.67 54.01 -24.89 58.51 C-27.81 61.63 -30.71 64.76 -33.5 68 C-36.89 71.94 -40.45 75.71 -44 79.5 C-48.21 83.99 -52.37 88.49 -56.39 93.14 C-59.86 97.15 -63.43 101.08 -67 105 C-67.84 105.92 -67.84 105.92 -68.69 106.86 C-70.54 108.89 -72.39 110.92 -74.25 112.94 C-74.84 113.59 -75.43 114.24 -76.04 114.91 C-81.07 120.35 -85.2 123.45 -92.73 124.07 C-100.89 123.83 -107.92 117.34 -113.37 111.86 C-113.86 111.37 -114.34 110.89 -114.84 110.39 C-115.86 109.36 -116.88 108.34 -117.89 107.31 C-119.42 105.76 -120.96 104.22 -122.5 102.68 C-144.27 80.84 -144.27 80.84 -144.31 72.69 C-144.16 66.87 -142.45 62.72 -138.69 58.25 C-133.27 53.71 -128.82 52.3 -121.8 52.54 C-113.55 53.91 -108.41 60.48 -103.22 66.52 C-100.09 70.02 -96.62 73.02 -93 76 C-91.85 74.85 -90.7 73.7 -89.55 72.55 C-88.49 71.49 -87.43 70.44 -86.36 69.39 C-82.73 65.82 -79.32 62.14 -76 58.29 C-73.62 55.57 -71.19 52.91 -68.75 50.25 C-68.28 49.74 -67.82 49.24 -67.34 48.71 C-65.41 46.61 -63.48 44.52 -61.54 42.42 C-55.04 35.37 -55.04 35.37 -48.69 28.19 C-44.64 23.51 -40.37 19.03 -36.14 14.52 C-32.46 10.6 -28.87 6.64 -25.43 2.52 C-18.54 -4.79 -8.48 -4.82 0 0 Z " fill="#000002" transform="translate(509,644)"/>
<path d="M0 0 C3.89 2.72 5.69 5.94 7.05 10.44 C8.03 16.58 8.37 22.42 4.68 27.69 C3.52 28.98 2.3 30.23 1.05 31.44 C0.34 32.16 -0.38 32.89 -1.11 33.64 C-17.53 49.38 -36.2 55.03 -58.47 54.71 C-75.55 54.11 -90.56 46.76 -103.95 36.44 C-104.69 35.91 -105.43 35.38 -106.2 34.83 C-111.9 30.42 -114.68 25.56 -115.95 18.44 C-116.04 11.47 -113.45 7.04 -108.8 2.03 C-103.91 -2.18 -99.34 -1.99 -93.06 -1.87 C-88.91 -1.46 -87.06 -0.33 -83.95 2.44 C-74.43 10.58 -64.73 16.93 -51.85 16.7 C-40.54 15.67 -33.17 10.92 -24.95 3.44 C-17.03 -3.1 -9.41 -4.69 0 0 Z " fill="#000002" transform="translate(692.9453125,406.5625)"/>
<path d="M0 0 C5.58 6.75 7.16 12.15 7.2 20.83 C7.21 21.7 7.21 22.57 7.22 23.47 C7.23 25.31 7.24 27.15 7.24 28.99 C7.25 31.79 7.28 34.6 7.31 37.4 C7.32 39.19 7.32 40.98 7.33 42.77 C7.34 43.6 7.35 44.44 7.37 45.3 C7.34 51.13 6.25 55.21 2.5 59.86 C2 60.34 1.51 60.82 1 61.31 C0.5 61.8 0.01 62.29 -0.5 62.8 C-4.77 66.21 -10.86 65.38 -16 65 C-20.99 64.01 -24.96 62.13 -28.05 57.89 C-32.21 49.61 -31.33 38.86 -31.31 29.88 C-31.33 28.57 -31.34 27.26 -31.36 25.92 C-31.37 17.41 -30.93 9.7 -25.81 2.62 C-18.57 -4.13 -8.56 -5.23 0 0 Z " fill="#000002" transform="translate(813,376)"/>
<path d="M0 0 C4.05 2.98 6.49 7.83 8.71 12.26 C8.99 18.14 9.02 24.02 9.06 29.91 C9.07 31.88 9.1 33.85 9.14 35.82 C9.19 38.67 9.22 41.51 9.23 44.36 C9.25 45.23 9.28 46.1 9.3 47 C9.28 53.28 7.69 57.38 3.71 62.26 C-0.3 65.9 -4.18 67.2 -9.49 67.55 C-14.97 66.97 -19.85 64.44 -24.29 61.26 C-27.33 57.07 -28.38 53.29 -28.5 48.18 C-28.52 47.39 -28.54 46.6 -28.56 45.78 C-28.62 42.17 -28.67 38.55 -28.7 34.93 C-28.72 33.03 -28.75 31.13 -28.8 29.23 C-29.27 10.2 -29.27 10.2 -23.95 3.69 C-21.21 1.32 -18.76 0.31 -15.29 -0.74 C-10.07 -2.48 -5.05 -2.35 0 0 Z " fill="#000002" transform="translate(486.29296875,376.7421875)"/>
<path d="M0 0 C0.99 0.33 1.98 0.66 3 1 C2.01 1.5 2.01 1.5 1 2 C1 13.55 1 25.1 1 37 C0.01 36.34 -0.98 35.68 -2 35 C-2.37 32.21 -2.37 32.21 -2.36 28.67 C-2.36 27.4 -2.36 26.12 -2.36 24.81 C-2.35 24.14 -2.34 23.48 -2.34 22.79 C-2.31 20.77 -2.32 18.76 -2.32 16.74 C-2.29 10.69 -2.18 5.7 0 0 Z " fill="#E5EEFC" transform="translate(254,873)"/>
</svg>
